<svg width="465" height="318" viewBox="0 0 465 318" fill="none" xmlns="http://www.w3.org/2000/svg">
<path d="M266.149 98.3509L281.491 107.207V116L258.508 102.763V93.9375L266.149 98.3509Z" fill="#2D2D2C"/>
<path d="M258.508 93.9406L261.546 92.1875L284.328 105.508L281.491 107.21L258.508 93.9406Z" fill="#3C3C3B"/>
<path d="M284.328 105.508V114.315L281.49 116.003V107.211L284.328 105.508Z" fill="#57585C"/>
<path d="M177.647 162.49L170.1 159.051L167.043 162.681L175.641 166.98L177.647 162.49Z" fill="#2D2D2C"/>
<path d="M194.41 157.36L185.177 184.88L181.022 183.781C175.689 182.415 172.35 173.726 174.426 165.62C176.502 157.513 183.842 152.515 189.174 153.88L195.033 156.364L194.41 157.36Z" fill="#2D2D2C"/>
<path d="M199.542 173.001C201.619 164.895 198.979 157.216 193.647 155.85C188.314 154.484 182.308 159.949 180.232 168.056C178.156 176.163 180.795 183.841 186.128 185.207C191.46 186.573 197.466 181.108 199.542 173.001Z" fill="#3C3C3B"/>
<path d="M196.057 171.768C194.841 176.522 191.319 179.726 188.193 178.925C185.066 178.124 183.519 173.622 184.736 168.869C185.953 164.117 189.474 160.912 192.601 161.713C195.727 162.512 197.274 167.014 196.057 171.768Z" fill="#2D2D2C"/>
<path d="M195.548 171.956C194.331 176.709 190.809 179.914 187.683 179.113C184.556 178.312 183.009 173.809 184.226 169.057C185.443 164.303 188.964 161.099 192.091 161.9C195.217 162.701 196.766 167.203 195.548 171.956Z" fill="#9D9D9C"/>
<path d="M192.617 171.203C192.03 173.497 190.331 175.042 188.823 174.656C187.315 174.27 186.568 172.097 187.156 169.805C187.743 167.511 189.442 165.966 190.95 166.352C192.459 166.738 193.205 168.91 192.617 171.203Z" fill="#DADADA"/>
<path d="M190.457 168.282C189.936 168.148 189.376 168.447 188.957 169.002C189.291 168.752 189.66 168.637 190.012 168.727C190.822 168.934 191.222 170.1 190.907 171.331C190.794 171.771 190.604 172.157 190.371 172.465C190.804 172.14 191.175 171.582 191.354 170.886C191.669 169.655 191.267 168.488 190.457 168.282Z" fill="#B2B2B2"/>
<path d="M188.283 175.849C188.171 176.286 187.847 176.58 187.56 176.505C187.274 176.432 187.132 176.019 187.243 175.582C187.355 175.145 187.679 174.852 187.965 174.925C188.252 174.999 188.394 175.412 188.283 175.849Z" fill="#3C3C3B"/>
<path d="M186.412 173.212C186.3 173.649 185.977 173.942 185.689 173.869C185.403 173.796 185.26 173.382 185.372 172.945C185.484 172.509 185.808 172.214 186.094 172.289C186.382 172.362 186.524 172.776 186.412 173.212Z" fill="#3C3C3B"/>
<path d="M186.763 169.232C186.652 169.669 186.328 169.963 186.041 169.889C185.754 169.815 185.612 169.402 185.724 168.965C185.835 168.528 186.159 168.234 186.446 168.308C186.733 168.383 186.875 168.795 186.763 169.232Z" fill="#3C3C3B"/>
<path d="M189.251 165.482C189.14 165.918 188.817 166.212 188.529 166.138C188.243 166.065 188.1 165.651 188.212 165.215C188.324 164.778 188.646 164.485 188.934 164.558C189.221 164.631 189.363 165.045 189.251 165.482Z" fill="#3C3C3B"/>
<path d="M192.718 165.634C192.607 166.071 192.284 166.364 191.996 166.291C191.709 166.217 191.567 165.804 191.679 165.367C191.79 164.93 192.114 164.637 192.401 164.71C192.688 164.785 192.83 165.197 192.718 165.634Z" fill="#3C3C3B"/>
<path d="M194.47 168.818C194.359 169.254 194.036 169.548 193.748 169.474C193.461 169.401 193.319 168.987 193.431 168.551C193.542 168.114 193.865 167.821 194.153 167.894C194.44 167.968 194.582 168.381 194.47 168.818Z" fill="#3C3C3B"/>
<path d="M193.521 173.32C193.409 173.757 193.087 174.05 192.799 173.977C192.512 173.904 192.37 173.49 192.481 173.054C192.593 172.619 192.916 172.325 193.204 172.398C193.49 172.47 193.633 172.884 193.521 173.32Z" fill="#3C3C3B"/>
<path d="M191.525 175.907C191.413 176.343 191.09 176.638 190.803 176.563C190.516 176.49 190.374 176.076 190.485 175.641C190.597 175.204 190.921 174.91 191.208 174.984C191.494 175.057 191.637 175.471 191.525 175.907Z" fill="#3C3C3B"/>
<path d="M245.682 122.111L238.136 118.672L235.078 122.303L243.676 126.601L245.682 122.111Z" fill="#2D2D2C"/>
<path d="M262.447 116.981L253.214 144.501L249.059 143.402C243.726 142.036 240.387 133.348 242.463 125.241C244.539 117.133 251.879 112.136 257.211 113.501L263.07 115.985L262.447 116.981Z" fill="#2D2D2C"/>
<path d="M267.583 132.626C269.659 124.519 267.02 116.84 261.689 115.475C256.357 114.109 250.351 119.574 248.275 127.681C246.199 135.787 248.838 143.466 254.17 144.832C259.501 146.197 265.507 140.733 267.583 132.626Z" fill="#3C3C3B"/>
<path d="M264.095 131.389C262.878 136.143 259.356 139.347 256.23 138.546C253.103 137.746 251.556 133.243 252.773 128.49C253.99 123.738 257.511 120.533 260.638 121.334C263.763 122.134 265.311 126.637 264.095 131.389Z" fill="#2D2D2C"/>
<path d="M263.583 131.581C262.366 136.334 258.844 139.539 255.718 138.738C252.592 137.937 251.044 133.435 252.261 128.682C253.478 123.928 256.999 120.724 260.126 121.525C263.252 122.325 264.8 126.827 263.583 131.581Z" fill="#9D9D9C"/>
<path d="M260.655 130.833C260.067 133.127 258.368 134.672 256.861 134.286C255.353 133.9 254.605 131.727 255.193 129.434C255.78 127.14 257.479 125.595 258.987 125.981C260.495 126.368 261.242 128.541 260.655 130.833Z" fill="#DADADA"/>
<path d="M258.496 127.903C257.976 127.769 257.415 128.068 256.996 128.623C257.33 128.373 257.699 128.258 258.051 128.348C258.861 128.556 259.261 129.721 258.946 130.953C258.833 131.392 258.643 131.778 258.41 132.086C258.843 131.761 259.214 131.203 259.393 130.507C259.707 129.276 259.306 128.111 258.496 127.903Z" fill="#B2B2B2"/>
<path d="M256.318 135.474C256.206 135.911 255.883 136.205 255.596 136.13C255.309 136.057 255.167 135.644 255.278 135.207C255.39 134.77 255.714 134.477 256.001 134.55C256.287 134.625 256.43 135.037 256.318 135.474Z" fill="#3C3C3B"/>
<path d="M254.451 132.837C254.339 133.274 254.015 133.568 253.728 133.494C253.442 133.42 253.299 133.007 253.411 132.57C253.523 132.134 253.846 131.84 254.133 131.914C254.42 131.987 254.562 132.401 254.451 132.837Z" fill="#3C3C3B"/>
<path d="M254.8 128.857C254.689 129.293 254.365 129.587 254.078 129.513C253.791 129.44 253.649 129.026 253.761 128.59C253.872 128.153 254.195 127.86 254.483 127.933C254.771 128.006 254.912 128.42 254.8 128.857Z" fill="#3C3C3B"/>
<path d="M257.289 125.106C257.177 125.543 256.854 125.836 256.566 125.762C256.28 125.689 256.137 125.275 256.249 124.84C256.361 124.403 256.683 124.109 256.971 124.183C257.259 124.257 257.4 124.669 257.289 125.106Z" fill="#3C3C3B"/>
<path d="M260.755 125.259C260.644 125.696 260.321 125.989 260.033 125.916C259.746 125.842 259.604 125.429 259.716 124.992C259.827 124.555 260.15 124.262 260.438 124.335C260.725 124.41 260.867 124.824 260.755 125.259Z" fill="#3C3C3B"/>
<path d="M262.505 128.442C262.394 128.878 262.071 129.173 261.783 129.098C261.496 129.025 261.354 128.611 261.466 128.176C261.577 127.739 261.9 127.445 262.188 127.519C262.475 127.593 262.617 128.005 262.505 128.442Z" fill="#3C3C3B"/>
<path d="M261.558 132.947C261.446 133.383 261.124 133.676 260.836 133.603C260.549 133.53 260.407 133.116 260.519 132.68C260.63 132.243 260.953 131.95 261.241 132.023C261.529 132.097 261.671 132.51 261.558 132.947Z" fill="#3C3C3B"/>
<path d="M259.562 135.529C259.45 135.965 259.128 136.258 258.84 136.185C258.553 136.112 258.411 135.698 258.522 135.262C258.634 134.825 258.957 134.532 259.245 134.605C259.531 134.678 259.674 135.092 259.562 135.529Z" fill="#3C3C3B"/>
<path d="M152.938 177.006L145.39 173.566L142.334 177.197L150.931 181.496L152.938 177.006Z" fill="#2D2D2C"/>
<path d="M169.701 171.879L160.468 199.399L156.313 198.301C150.98 196.935 147.641 188.246 149.717 180.139C151.793 172.032 159.133 167.035 164.465 168.4L170.324 170.884L169.701 171.879Z" fill="#2D2D2C"/>
<path d="M174.831 187.52C176.907 179.413 174.268 171.735 168.937 170.369C163.605 169.004 157.599 174.468 155.523 182.575C153.447 190.682 156.086 198.361 161.418 199.726C166.749 201.092 172.755 195.627 174.831 187.52Z" fill="#3C3C3B"/>
<path d="M171.347 186.288C170.13 191.041 166.608 194.246 163.482 193.445C160.355 192.645 158.808 188.141 160.025 183.389C161.242 178.636 164.763 175.431 167.89 176.232C171.016 177.032 172.563 181.535 171.347 186.288Z" fill="#2D2D2C"/>
<path d="M170.839 186.479C169.622 191.233 166.1 194.437 162.974 193.636C159.847 192.835 158.3 188.333 159.517 183.58C160.734 178.827 164.255 175.622 167.382 176.424C170.508 177.223 172.057 181.725 170.839 186.479Z" fill="#9D9D9C"/>
<path d="M167.906 185.728C167.319 188.021 165.62 189.567 164.112 189.18C162.605 188.794 161.857 186.622 162.445 184.328C163.032 182.034 164.731 180.489 166.239 180.876C167.748 181.263 168.494 183.435 167.906 185.728Z" fill="#DADADA"/>
<path d="M165.748 182.801C165.227 182.668 164.667 182.966 164.248 183.521C164.582 183.272 164.951 183.157 165.303 183.247C166.113 183.453 166.513 184.62 166.198 185.851C166.085 186.291 165.895 186.676 165.662 186.985C166.095 186.66 166.466 186.102 166.645 185.406C166.96 184.175 166.558 183.008 165.748 182.801Z" fill="#B2B2B2"/>
<path d="M163.572 190.365C163.46 190.801 163.137 191.096 162.85 191.021C162.563 190.948 162.421 190.534 162.532 190.097C162.644 189.661 162.968 189.368 163.254 189.441C163.541 189.514 163.683 189.928 163.572 190.365Z" fill="#3C3C3B"/>
<path d="M161.705 187.728C161.593 188.164 161.269 188.459 160.982 188.384C160.696 188.311 160.553 187.897 160.665 187.461C160.777 187.024 161.101 186.731 161.387 186.804C161.674 186.878 161.816 187.291 161.705 187.728Z" fill="#3C3C3B"/>
<path d="M162.056 183.747C161.945 184.184 161.621 184.477 161.334 184.404C161.047 184.331 160.905 183.917 161.017 183.48C161.128 183.044 161.451 182.75 161.739 182.824C162.026 182.898 162.168 183.312 162.056 183.747Z" fill="#3C3C3B"/>
<path d="M164.542 180C164.431 180.437 164.108 180.73 163.82 180.657C163.534 180.584 163.391 180.17 163.503 179.735C163.615 179.298 163.938 179.003 164.225 179.078C164.512 179.151 164.654 179.564 164.542 180Z" fill="#3C3C3B"/>
<path d="M168.009 180.15C167.898 180.587 167.575 180.88 167.287 180.807C167 180.733 166.858 180.32 166.97 179.883C167.081 179.446 167.404 179.152 167.692 179.226C167.979 179.301 168.121 179.714 168.009 180.15Z" fill="#3C3C3B"/>
<path d="M169.761 183.332C169.65 183.769 169.327 184.063 169.039 183.989C168.752 183.916 168.61 183.502 168.722 183.067C168.833 182.63 169.156 182.336 169.444 182.41C169.731 182.483 169.873 182.896 169.761 183.332Z" fill="#3C3C3B"/>
<path d="M168.814 187.841C168.702 188.278 168.38 188.572 168.092 188.498C167.805 188.424 167.663 188.011 167.774 187.574C167.886 187.137 168.209 186.844 168.497 186.917C168.783 186.992 168.926 187.404 168.814 187.841Z" fill="#3C3C3B"/>
<path d="M166.818 190.423C166.706 190.86 166.383 191.153 166.096 191.08C165.809 191.006 165.667 190.593 165.778 190.156C165.89 189.719 166.213 189.426 166.501 189.5C166.787 189.573 166.93 189.986 166.818 190.423Z" fill="#3C3C3B"/>
<path d="M36.832 129.328V186.646C36.832 187.866 38.6037 188.857 40.7891 188.857C42.9744 188.857 44.7461 187.867 44.7461 186.646V129.328H36.832Z" fill="#3C3C3B"/>
<path d="M44.7461 129.324C44.7461 130.544 42.9744 131.534 40.7891 131.534C38.6037 131.534 36.832 130.545 36.832 129.324C36.832 128.104 38.6037 127.113 40.7891 127.113C42.9744 127.113 44.7461 128.103 44.7461 129.324Z" fill="#57585C"/>
<path d="M39.2559 106.199V128.395C39.2559 128.868 39.942 129.251 40.7879 129.251C41.6338 129.251 42.3199 128.868 42.3199 128.395V106.199H39.2559Z" fill="#3C3C3B"/>
<path d="M42.3219 106.2C42.3219 106.672 41.6358 107.055 40.7898 107.055C39.9439 107.055 39.2578 106.672 39.2578 106.2C39.2578 105.727 39.9439 105.344 40.7898 105.344C41.6358 105.344 42.3219 105.727 42.3219 106.2Z" fill="#57585C"/>
<path d="M6.98438 156.98V174.63L12.0489 177.554V159.932L6.98438 156.98Z" fill="#57585C"/>
<path d="M6.98438 156.986L7.75806 156.539L12.793 159.385V177.154L12.0489 177.559V159.937L6.98438 156.986Z" fill="#3C3C3B"/>
<path d="M80.6341 222.684L71.4014 250.204L67.2463 249.105C61.9137 247.74 58.5749 239.051 60.6508 230.944C62.7268 222.836 70.0663 217.84 75.3989 219.204L81.2579 221.688L80.6341 222.684Z" fill="#2D2D2C"/>
<path d="M85.7569 238.325C87.8332 230.218 85.1941 222.539 79.8623 221.174C74.5306 219.808 68.5252 225.273 66.4489 233.38C64.3726 241.487 67.0117 249.166 72.3434 250.531C77.6752 251.897 83.6806 246.432 85.7569 238.325Z" fill="#3C3C3B"/>
<path d="M82.2801 237.092C81.0633 241.846 77.5418 245.05 74.4153 244.249C71.2889 243.449 69.7415 238.946 70.9584 234.194C72.1752 229.44 75.6968 226.236 78.8232 227.037C81.9497 227.837 83.497 232.339 82.2801 237.092Z" fill="#2D2D2C"/>
<path d="M81.7704 237.284C80.5535 242.038 77.032 245.242 73.9055 244.441C70.7791 243.64 69.2317 239.138 70.4486 234.385C71.6655 229.631 75.187 226.427 78.3134 227.228C81.4399 228.028 82.9873 232.53 81.7704 237.284Z" fill="#9D9D9C"/>
<path d="M78.842 236.536C78.2544 238.83 76.556 240.375 75.048 239.989C73.5401 239.603 72.7926 237.43 73.3803 235.137C73.9668 232.843 75.6663 231.298 77.1743 231.684C78.6822 232.07 79.4286 234.243 78.842 236.536Z" fill="#DADADA"/>
<path d="M76.6839 233.606C76.163 233.472 75.6027 233.771 75.1836 234.326C75.5174 234.076 75.8861 233.961 76.2385 234.051C77.0483 234.258 77.4488 235.425 77.1337 236.656C77.0209 237.096 76.8305 237.481 76.5974 237.789C77.0308 237.464 77.4018 236.906 77.5801 236.21C77.8942 234.979 77.4937 233.813 76.6839 233.606Z" fill="#B2B2B2"/>
<path d="M74.5054 241.169C74.3938 241.606 74.071 241.899 73.7831 241.826C73.4964 241.752 73.3542 241.339 73.4658 240.902C73.5774 240.466 73.9002 240.172 74.188 240.246C74.4759 240.319 74.6181 240.733 74.5054 241.169Z" fill="#3C3C3B"/>
<path d="M72.6382 238.536C72.5266 238.972 72.2038 239.265 71.916 239.192C71.6292 239.119 71.487 238.705 71.5986 238.27C71.7102 237.833 72.0331 237.539 72.3209 237.613C72.6076 237.685 72.7498 238.099 72.6382 238.536Z" fill="#3C3C3B"/>
<path d="M72.9878 234.552C72.8762 234.989 72.5523 235.283 72.2656 235.209C71.9789 235.135 71.8366 234.722 71.9482 234.285C72.0598 233.848 72.3827 233.555 72.6705 233.628C72.9572 233.703 73.0994 234.116 72.9878 234.552Z" fill="#3C3C3B"/>
<path d="M75.4761 230.806C75.3645 231.243 75.0417 231.537 74.7538 231.463C74.4671 231.389 74.3249 230.976 74.4365 230.539C74.5481 230.102 74.8709 229.809 75.1587 229.882C75.4455 229.957 75.5877 230.369 75.4761 230.806Z" fill="#3C3C3B"/>
<path d="M78.9429 230.957C78.8313 231.394 78.5085 231.687 78.2206 231.614C77.9339 231.541 77.7917 231.127 77.9033 230.692C78.0149 230.255 78.3377 229.961 78.6255 230.035C78.9134 230.108 79.0556 230.521 78.9429 230.957Z" fill="#3C3C3B"/>
<path d="M80.6929 234.138C80.5813 234.575 80.2585 234.868 79.9706 234.795C79.6839 234.722 79.5417 234.308 79.6533 233.871C79.7649 233.435 80.0877 233.14 80.3755 233.215C80.6623 233.289 80.8045 233.702 80.6929 234.138Z" fill="#3C3C3B"/>
<path d="M79.7456 238.646C79.634 239.082 79.3112 239.376 79.0234 239.302C78.7367 239.229 78.5944 238.815 78.706 238.379C78.8176 237.942 79.1405 237.649 79.4283 237.722C79.715 237.797 79.8572 238.209 79.7456 238.646Z" fill="#3C3C3B"/>
<path d="M77.7495 241.232C77.6379 241.668 77.3151 241.962 77.0273 241.888C76.7406 241.815 76.5983 241.401 76.7099 240.965C76.8216 240.528 77.1444 240.235 77.4322 240.308C77.7189 240.381 77.8612 240.795 77.7495 241.232Z" fill="#3C3C3B"/>
<path d="M119.694 197.645L112.147 194.207L109.09 197.837L117.688 202.135L119.694 197.645Z" fill="#2D2D2C"/>
<path d="M84.5859 206.042L92.1761 210.424L113.323 198.643L105.362 194.047L84.5859 206.042Z" fill="#3C3C3B"/>
<path d="M92.1761 210.426V222.394L84.5859 218.039V206.043L92.1761 210.426Z" fill="#2D2D2C"/>
<path d="M113.32 198.645V210.592L92.1738 222.394V210.426L113.32 198.645Z" fill="#57585C"/>
<path d="M197.631 140.719L205.222 145.102L239.584 125.229L231.622 120.633L197.631 140.719Z" fill="#3C3C3B"/>
<path d="M205.222 145.105V157.074L197.631 152.719V140.723L205.222 145.105Z" fill="#2D2D2C"/>
<path d="M239.584 125.23V137.178L205.223 157.072V145.103L239.584 125.23Z" fill="#57585C"/>
<path d="M43.8594 116.767L246.105 0L284.606 21.8951L82.0717 138.829L43.8594 116.767Z" fill="#F6F6F6"/>
<path d="M82.0718 138.828V213.407L43.9995 190.735L43.8594 116.766L82.0718 138.828Z" fill="#DADADA"/>
<path d="M82.0711 156.479L43.8588 134.418L24.6152 145.527L62.9546 167.517L82.0711 156.479Z" fill="#D64545"/>
<path d="M24.6163 145.527C24.6163 145.527 18.6293 148.347 12.3567 160.345C10.7075 163.5 9.0387 167.289 7.45413 171.827C5.68244 176.899 4.0158 182.909 2.59866 190.017C2.59866 190.017 0.26777 200.555 1.45729 214.681L23.2068 227.928L40.9434 237.1C40.9434 237.1 45.8941 239.262 51.5025 235.901C59.0719 231.364 64.5555 228.365 64.5555 228.365C64.5555 228.365 71.4858 215.538 79.6318 219.661L82.0722 218.251V156.478L62.9556 167.515L24.6163 145.527Z" fill="#E40000"/>
<path d="M51.5023 235.9C59.145 231.487 64.5553 228.363 64.5553 228.363C64.5553 228.363 71.4856 215.537 79.6317 219.659L82.072 218.25V156.477L62.9554 167.514C62.9554 167.514 58.8222 174.511 54.7284 184.812C52.9687 189.24 51.2156 194.28 49.8029 199.637C48.6812 203.888 47.774 208.338 47.2454 212.841C46.277 221.097 47.7773 228.84 50.3763 236.55L51.5023 235.9Z" fill="#C10D0D"/>
<path d="M44.9171 212.699C46.2106 212.777 47.3563 211.857 47.5435 210.573C48.0852 206.845 48.8709 203.171 49.8032 199.634C51.0103 195.061 52.4635 190.719 53.9583 186.79C54.3961 185.641 53.9299 184.349 52.8651 183.735C52.8246 183.712 52.782 183.689 52.7393 183.667C30.7479 172.644 19.2489 165.208 14.7129 162.052C13.4381 161.165 11.6784 161.636 11.0163 163.042C9.8115 165.599 8.60995 168.511 7.45435 171.822C5.82601 176.484 4.2874 181.936 2.94796 188.304C2.73129 189.332 3.18652 190.383 4.07948 190.938C9.44272 194.265 28.3284 205.772 43.5241 212.459C43.7987 212.579 44.0898 212.648 44.3886 212.667L44.9171 212.699Z" fill="#24282B"/>
<path d="M46.9246 208.834C46.6247 208.816 46.3347 208.748 46.0601 208.626C30.8633 201.94 11.9787 190.432 6.61549 187.105C5.72253 186.552 5.26729 185.5 5.48287 184.471C6.82122 178.102 8.36092 172.65 9.98926 167.989C10.7772 165.733 11.5859 163.677 12.4022 161.777C11.819 161.997 11.309 162.422 11.0179 163.042C9.81307 165.6 8.61151 168.512 7.45592 171.823C5.82758 176.485 4.28897 181.937 2.94953 188.305C2.73395 189.333 3.18809 190.384 4.08215 190.939C9.44538 194.265 28.3311 205.773 43.5267 212.459C43.8014 212.581 44.0925 212.649 44.3912 212.667L44.9187 212.699C46.2122 212.777 47.3579 211.856 47.545 210.573C47.6282 209.997 47.7289 209.425 47.8241 208.851C47.7015 208.862 47.579 208.872 47.4531 208.865L46.9246 208.834Z" fill="#191C1E"/>
<path d="M61.2918 179.151L76.2182 170.746C76.9361 170.342 77.8236 170.856 77.8301 171.681L77.9407 187.953C77.9429 188.335 77.7437 188.691 77.4154 188.888L62.385 197.906C61.6649 198.338 60.7479 197.819 60.7479 196.979L60.7402 180.095C60.7402 179.703 60.9503 179.343 61.2918 179.151Z" fill="#24282B"/>
<path d="M77.83 171.681C77.8257 171.033 77.2752 170.584 76.6909 170.615C76.8025 170.781 76.8725 170.979 76.8747 171.203L76.9852 187.476C76.9874 187.858 76.7883 188.214 76.46 188.41L61.4295 197.429C61.2687 197.525 61.0991 197.568 60.9316 197.576C61.2348 198.028 61.8596 198.221 62.3849 197.907L77.4153 188.889C77.7436 188.692 77.9428 188.337 77.9406 187.954L77.83 171.681Z" fill="#191C1E"/>
<path d="M59.1445 178.54L79.3959 166.848V215.892C79.3959 215.892 66.8638 215.7 63.234 226.4L59.2375 228.535L59.1445 178.54Z" stroke="#E40000" stroke-width="0.573202" stroke-miterlimit="10"/>
<path d="M1.45714 214.682C1.45714 214.682 0.183359 214.427 0.056418 215.319C-0.0705225 216.211 0.056418 220.159 0.056418 220.159C0.056418 220.159 -0.00705513 221.178 2.349 222.452C4.70506 223.726 40.9433 243.214 40.9433 243.214C40.9433 243.214 46.6184 245.287 50.8786 242.832C55.687 240.062 61.848 236.257 61.848 236.257L62.2507 229.696L49.967 236.788C49.967 236.788 45.6565 239.139 40.9433 237.1C36.2301 235.063 1.45714 214.682 1.45714 214.682Z" fill="#2D2D2C"/>
<path d="M82.0723 138.829V213.407L284.736 96.9908L284.607 21.8945L82.0723 138.829Z" fill="#EDEDED"/>
<path d="M81.2441 153.93V211.248C81.2441 212.468 83.0158 213.458 85.2012 213.458C87.3865 213.458 89.1582 212.469 89.1582 211.248V153.93H81.2441Z" fill="#3C3C3B"/>
<path d="M136.454 192.513L127.222 220.033L123.067 218.934C117.734 217.569 114.395 208.88 116.471 200.772C118.547 192.665 125.887 187.668 131.219 189.032L137.078 191.516L136.454 192.513Z" fill="#2D2D2C"/>
<path d="M141.585 208.158C143.661 200.051 141.022 192.372 135.69 191.006C130.357 189.64 124.351 195.105 122.275 203.212C120.199 211.319 122.838 218.998 128.171 220.363C133.503 221.729 139.509 216.264 141.585 208.158Z" fill="#3C3C3B"/>
<path d="M138.102 206.924C136.886 211.678 133.364 214.882 130.238 214.081C127.111 213.281 125.564 208.778 126.781 204.026C127.998 199.272 131.519 196.068 134.645 196.869C137.771 197.67 139.319 202.172 138.102 206.924Z" fill="#2D2D2C"/>
<path d="M137.593 207.112C136.376 211.866 132.854 215.07 129.728 214.269C126.601 213.468 125.054 208.966 126.271 204.213C127.488 199.459 131.009 196.255 134.136 197.056C137.262 197.856 138.81 202.358 137.593 207.112Z" fill="#9D9D9C"/>
<path d="M134.662 206.363C134.075 208.657 132.376 210.202 130.868 209.817C129.36 209.431 128.613 207.259 129.201 204.965C129.788 202.671 131.487 201.126 132.995 201.512C134.503 201.899 135.25 204.071 134.662 206.363Z" fill="#DADADA"/>
<path d="M132.504 203.434C131.983 203.3 131.423 203.599 131.004 204.154C131.338 203.905 131.706 203.79 132.059 203.879C132.869 204.086 133.269 205.253 132.954 206.484C132.841 206.924 132.651 207.309 132.418 207.618C132.851 207.293 133.222 206.734 133.4 206.038C133.715 204.807 133.314 203.642 132.504 203.434Z" fill="#B2B2B2"/>
<path d="M130.328 211.005C130.216 211.442 129.893 211.736 129.605 211.662C129.319 211.588 129.176 211.175 129.288 210.738C129.4 210.301 129.723 210.008 130.01 210.082C130.297 210.156 130.439 210.569 130.328 211.005Z" fill="#3C3C3B"/>
<path d="M128.459 208.368C128.347 208.805 128.023 209.098 127.736 209.025C127.45 208.952 127.307 208.538 127.419 208.101C127.531 207.665 127.853 207.372 128.141 207.445C128.428 207.519 128.57 207.932 128.459 208.368Z" fill="#3C3C3B"/>
<path d="M128.808 204.387C128.697 204.824 128.374 205.117 128.086 205.044C127.799 204.97 127.657 204.557 127.769 204.121C127.88 203.685 128.203 203.39 128.491 203.465C128.777 203.537 128.92 203.951 128.808 204.387Z" fill="#3C3C3B"/>
<path d="M131.296 200.638C131.185 201.075 130.862 201.368 130.574 201.295C130.287 201.222 130.145 200.808 130.257 200.371C130.368 199.935 130.691 199.64 130.979 199.715C131.267 199.789 131.408 200.203 131.296 200.638Z" fill="#3C3C3B"/>
<path d="M97.7613 199.911C97.6496 200.348 97.3257 200.642 97.039 200.568C96.7523 200.495 96.61 200.081 96.7217 199.644C96.8333 199.208 97.1572 198.914 97.4439 198.988C97.7306 199.062 97.8729 199.476 97.7613 199.911Z" fill="#3C3C3B"/>
<path d="M105.308 195.579C105.197 196.015 104.873 196.308 104.586 196.235C104.299 196.162 104.157 195.748 104.269 195.313C104.38 194.876 104.703 194.582 104.991 194.656C105.277 194.729 105.42 195.142 105.308 195.579Z" fill="#3C3C3B"/>
<path d="M113.238 191.087C113.126 191.524 112.802 191.817 112.516 191.744C112.229 191.67 112.087 191.257 112.198 190.82C112.31 190.384 112.633 190.09 112.92 190.164C113.207 190.238 113.349 190.651 113.238 191.087Z" fill="#3C3C3B"/>
<path d="M120.785 186.759C120.673 187.196 120.35 187.489 120.062 187.416C119.776 187.343 119.633 186.929 119.745 186.492C119.857 186.056 120.18 185.761 120.467 185.836C120.754 185.91 120.896 186.324 120.785 186.759Z" fill="#3C3C3B"/>
<path d="M128.429 182.306C128.318 182.743 127.995 183.036 127.707 182.963C127.42 182.889 127.278 182.476 127.39 182.039C127.501 181.602 127.824 181.309 128.112 181.382C128.399 181.456 128.541 181.869 128.429 182.306Z" fill="#3C3C3B"/>
<path d="M135.976 177.97C135.864 178.407 135.542 178.7 135.254 178.627C134.967 178.553 134.825 178.14 134.936 177.703C135.048 177.266 135.372 176.973 135.659 177.046C135.945 177.121 136.088 177.533 135.976 177.97Z" fill="#3C3C3B"/>
<path d="M143.906 173.482C143.794 173.918 143.471 174.212 143.184 174.138C142.897 174.065 142.755 173.651 142.866 173.215C142.978 172.778 143.301 172.485 143.588 172.558C143.875 172.633 144.017 173.045 143.906 173.482Z" fill="#3C3C3B"/>
<path d="M151.451 169.15C151.339 169.586 151.015 169.88 150.728 169.806C150.442 169.733 150.299 169.319 150.411 168.883C150.523 168.446 150.847 168.153 151.133 168.226C151.421 168.299 151.562 168.713 151.451 169.15Z" fill="#3C3C3B"/>
<path d="M159.251 164.634C159.14 165.071 158.816 165.364 158.529 165.291C158.243 165.217 158.1 164.804 158.212 164.367C158.324 163.93 158.647 163.637 158.934 163.71C159.222 163.784 159.364 164.197 159.251 164.634Z" fill="#3C3C3B"/>
<path d="M166.798 160.298C166.687 160.735 166.363 161.028 166.076 160.955C165.789 160.881 165.647 160.468 165.759 160.031C165.87 159.594 166.193 159.301 166.481 159.375C166.768 159.449 166.91 159.861 166.798 160.298Z" fill="#3C3C3B"/>
<path d="M174.728 155.809C174.616 156.245 174.293 156.539 174.006 156.465C173.719 156.392 173.577 155.978 173.688 155.543C173.8 155.106 174.123 154.813 174.411 154.886C174.697 154.96 174.84 155.372 174.728 155.809Z" fill="#3C3C3B"/>
<path d="M182.275 151.478C182.163 151.914 181.84 152.209 181.553 152.134C181.266 152.061 181.124 151.647 181.235 151.211C181.347 150.774 181.67 150.481 181.958 150.554C182.244 150.628 182.387 151.041 182.275 151.478Z" fill="#3C3C3B"/>
<path d="M189.918 147.021C189.806 147.457 189.483 147.752 189.195 147.677C188.909 147.604 188.766 147.19 188.878 146.754C188.99 146.317 189.312 146.024 189.6 146.097C189.887 146.17 190.029 146.584 189.918 147.021Z" fill="#3C3C3B"/>
<path d="M197.464 142.688C197.353 143.125 197.03 143.418 196.742 143.345C196.455 143.271 196.313 142.858 196.425 142.422C196.536 141.985 196.859 141.691 197.147 141.765C197.435 141.839 197.576 142.252 197.464 142.688Z" fill="#3C3C3B"/>
<path d="M205.394 138.196C205.282 138.632 204.96 138.927 204.672 138.852C204.385 138.779 204.243 138.365 204.354 137.93C204.466 137.493 204.79 137.199 205.077 137.273C205.363 137.347 205.506 137.76 205.394 138.196Z" fill="#3C3C3B"/>
<path d="M212.941 133.868C212.829 134.305 212.507 134.599 212.219 134.525C211.932 134.452 211.79 134.038 211.901 133.601C212.013 133.165 212.337 132.872 212.624 132.945C212.91 133.018 213.053 133.432 212.941 133.868Z" fill="#3C3C3B"/>
<path d="M134.763 200.786C134.652 201.223 134.329 201.516 134.041 201.443C133.754 201.37 133.612 200.956 133.724 200.519C133.835 200.083 134.158 199.789 134.446 199.863C134.733 199.936 134.875 200.35 134.763 200.786Z" fill="#3C3C3B"/>
<path d="M136.513 203.974C136.402 204.411 136.078 204.704 135.791 204.63C135.504 204.557 135.362 204.144 135.474 203.707C135.585 203.27 135.908 202.977 136.196 203.05C136.483 203.125 136.625 203.538 136.513 203.974Z" fill="#3C3C3B"/>
<path d="M135.568 208.478C135.456 208.914 135.132 209.209 134.846 209.134C134.559 209.061 134.417 208.647 134.528 208.211C134.64 207.774 134.963 207.481 135.251 207.554C135.538 207.629 135.68 208.042 135.568 208.478Z" fill="#3C3C3B"/>
<path d="M133.572 211.063C133.46 211.499 133.137 211.794 132.85 211.719C132.563 211.646 132.421 211.232 132.532 210.797C132.644 210.361 132.967 210.067 133.254 210.14C133.542 210.212 133.685 210.626 133.572 211.063Z" fill="#3C3C3B"/>
<path d="M55.9766 188.113L59.6184 190.215" stroke="#3C3C3B" stroke-width="0.764269" stroke-miterlimit="10" stroke-linecap="round"/>
<path d="M55.9766 200.148L59.6184 202.251" stroke="#3C3C3B" stroke-width="0.764269" stroke-miterlimit="10" stroke-linecap="round"/>
<path d="M59.1445 187.367V205.016L64.209 207.94V190.319L59.1445 187.367Z" fill="#57585C"/>
<path d="M59.1445 187.366L59.9182 186.918L64.9532 189.764V207.533L64.209 207.939V190.317L59.1445 187.366Z" fill="#3C3C3B"/>
<path d="M89.1582 153.929C89.1582 155.149 87.3865 156.14 85.2012 156.14C83.0158 156.14 81.2441 155.151 81.2441 153.929C81.2441 152.709 83.0158 151.719 85.2012 151.719C87.3865 151.72 89.1582 152.709 89.1582 153.929Z" fill="#57585C"/>
<path d="M83.6699 130.805V153.001C83.6699 153.473 84.3561 153.856 85.202 153.856C86.0479 153.856 86.734 153.473 86.734 153.001V130.805H83.6699Z" fill="#3C3C3B"/>
<path d="M86.734 130.805C86.734 131.278 86.0479 131.661 85.202 131.661C84.3561 131.661 83.6699 131.278 83.6699 130.805C83.6699 130.332 84.3561 129.949 85.202 129.949C86.0479 129.949 86.734 130.333 86.734 130.805Z" fill="#57585C"/>
<path d="M85.2026 131.387C85.7761 131.387 86.2411 131.127 86.2411 130.807C86.2411 130.486 85.7761 130.227 85.2026 130.227C84.629 130.227 84.1641 130.486 84.1641 130.807C84.1641 131.127 84.629 131.387 85.2026 131.387Z" fill="#3C3C3B"/>
<path d="M9.36328 211.574L33.3178 225.404" stroke="#D64545" stroke-width="0.764269" stroke-miterlimit="10"/>
<path d="M9.36328 213.523L33.3178 227.353" stroke="#D64545" stroke-width="0.764269" stroke-miterlimit="10"/>
<path d="M9.36328 215.203L33.3178 229.033" stroke="#D64545" stroke-width="0.764269" stroke-miterlimit="10"/>
<path d="M9.36328 217.152L33.3178 230.982" stroke="#D64545" stroke-width="0.764269" stroke-miterlimit="10"/>
<path d="M1.04297 205.574L9.641 210.256C9.641 210.256 11.5648 212.891 9.73621 219.331L1.45662 214.682C1.45662 214.682 1.13817 209.299 1.04297 205.574Z" fill="white"/>
<path d="M29.8301 230.762C29.8301 230.762 30.8489 224.966 34.0016 224.105L40.7842 227.64C40.7842 227.64 42.7003 228.917 44.7981 228.942C45.8432 228.954 46.9331 228.657 47.8534 227.735L50.3769 236.548C50.3769 236.548 47.9869 237.899 44.8922 237.907C43.6524 237.91 42.3009 237.698 40.9439 237.097L29.8301 230.762Z" fill="white"/>
<path d="M44.7988 228.945C45.8439 228.957 46.9338 228.66 47.8542 227.738L50.3776 236.551C50.3776 236.551 47.9877 237.902 44.8929 237.91L44.7988 228.945Z" fill="#F6A032"/>
<path d="M220.33 129.474C220.218 129.911 219.895 130.205 219.607 130.13C219.321 130.057 219.178 129.644 219.29 129.207C219.402 128.77 219.724 128.477 220.012 128.55C220.299 128.625 220.441 129.037 220.33 129.474Z" fill="#3C3C3B"/>
<path d="M227.876 125.142C227.765 125.578 227.442 125.872 227.154 125.798C226.868 125.725 226.725 125.311 226.837 124.875C226.949 124.438 227.271 124.145 227.559 124.218C227.846 124.292 227.988 124.705 227.876 125.142Z" fill="#3C3C3B"/>
<path d="M235.806 120.653C235.695 121.089 235.371 121.384 235.084 121.309C234.797 121.236 234.655 120.822 234.767 120.387C234.878 119.95 235.201 119.656 235.489 119.73C235.776 119.802 235.918 120.216 235.806 120.653Z" fill="#3C3C3B"/>
<path d="M243.351 116.324C243.239 116.761 242.917 117.055 242.629 116.981C242.342 116.908 242.2 116.494 242.312 116.058C242.423 115.623 242.746 115.329 243.034 115.402C243.32 115.475 243.463 115.888 243.351 116.324Z" fill="#3C3C3B"/>
<path d="M250.994 111.864C250.882 112.3 250.559 112.594 250.271 112.52C249.985 112.447 249.842 112.033 249.954 111.598C250.066 111.161 250.389 110.867 250.676 110.941C250.963 111.015 251.105 111.428 250.994 111.864Z" fill="#3C3C3B"/>
<path d="M258.541 107.536C258.429 107.973 258.106 108.267 257.818 108.193C257.532 108.12 257.389 107.706 257.501 107.269C257.613 106.833 257.935 106.539 258.223 106.613C258.511 106.686 258.653 107.1 258.541 107.536Z" fill="#3C3C3B"/>
<path d="M266.47 103.044C266.359 103.481 266.036 103.775 265.748 103.701C265.461 103.628 265.319 103.214 265.431 102.777C265.542 102.341 265.865 102.046 266.153 102.121C266.441 102.194 266.582 102.608 266.47 103.044Z" fill="#3C3C3B"/>
<path d="M274.017 98.7122C273.906 99.1488 273.583 99.4432 273.295 99.3688C273.008 99.2954 272.866 98.8818 272.978 98.4452C273.089 98.0085 273.412 97.7153 273.7 97.7886C273.986 97.863 274.129 98.2766 274.017 98.7122Z" fill="#3C3C3B"/>
<path d="M97.2551 196.054C96.7802 191.293 96.5329 186.532 96.3644 181.77C96.1816 177.009 96.1324 172.248 96.1094 167.486C96.1291 162.725 96.1783 157.963 96.36 153.202C96.5285 148.441 96.7769 143.679 97.2551 138.918C97.7322 143.679 97.9817 148.441 98.1492 153.202C98.3319 157.963 98.3801 162.725 98.3998 167.486C98.3768 172.248 98.3286 177.009 98.1448 181.77C97.9774 186.532 97.729 191.293 97.2551 196.054Z" fill="#DADADA"/>
<path d="M105.089 191.468C104.614 186.707 104.367 181.946 104.198 177.184C104.016 172.423 103.966 167.662 103.943 162.9C103.963 158.139 104.012 153.377 104.194 148.616C104.362 143.855 104.611 139.093 105.089 134.332C105.566 139.093 105.816 143.855 105.983 148.616C106.166 153.377 106.214 158.139 106.234 162.9C106.211 167.662 106.163 172.423 105.979 177.184C105.811 181.946 105.563 186.707 105.089 191.468Z" fill="#DADADA"/>
<path d="M112.538 187.265C112.065 182.504 111.816 177.743 111.648 172.981C111.465 168.22 111.416 163.458 111.393 158.697C111.412 153.936 111.462 149.174 111.644 144.413C111.813 139.652 112.061 134.89 112.538 130.129C113.015 134.89 113.265 139.652 113.433 144.413C113.616 149.174 113.664 153.936 113.684 158.697C113.661 163.458 113.612 168.22 113.429 172.981C113.261 177.743 113.013 182.504 112.538 187.265Z" fill="#DADADA"/>
<path d="M120.372 182.679C119.897 177.918 119.65 173.157 119.482 168.395C119.299 163.634 119.25 158.873 119.227 154.111C119.246 149.35 119.295 144.588 119.478 139.827C119.646 135.066 119.895 130.304 120.372 125.543C120.849 130.304 121.099 135.066 121.267 139.827C121.45 144.588 121.498 149.35 121.518 154.111C121.495 158.873 121.447 163.634 121.263 168.395C121.096 173.157 120.847 177.918 120.372 182.679Z" fill="#DADADA"/>
<path d="M127.825 178.402C127.352 173.641 127.103 168.879 126.935 164.118C126.752 159.357 126.703 154.595 126.68 149.834C126.699 145.072 126.749 140.311 126.93 135.55C127.098 130.788 127.347 126.027 127.824 121.266C128.301 126.027 128.551 130.788 128.719 135.55C128.902 140.311 128.95 145.072 128.971 149.834C128.948 154.595 128.899 159.357 128.716 164.118C128.548 168.879 128.299 173.641 127.825 178.402Z" fill="#DADADA"/>
<path d="M135.659 173.816C135.186 169.055 134.937 164.293 134.769 159.532C134.586 154.771 134.537 150.009 134.514 145.248C134.533 140.487 134.583 135.725 134.764 130.964C134.932 126.202 135.181 121.441 135.658 116.68C136.135 121.441 136.385 126.202 136.553 130.964C136.736 135.725 136.784 140.487 136.805 145.248C136.782 150.009 136.733 154.771 136.55 159.532C136.382 164.293 136.134 169.055 135.659 173.816Z" fill="#DADADA"/>
<path d="M143.109 169.617C142.634 164.855 142.386 160.094 142.218 155.333C142.035 150.571 141.986 145.81 141.963 141.049C141.983 136.287 142.032 131.526 142.213 126.765C142.382 122.003 142.63 117.242 143.109 112.48C143.586 117.242 143.835 122.003 144.004 126.765C144.187 131.526 144.235 136.287 144.254 141.049C144.231 145.81 144.183 150.571 143.999 155.333C143.832 160.094 143.584 164.855 143.109 169.617Z" fill="#DADADA"/>
<path d="M150.945 165.027C150.47 160.266 150.222 155.504 150.054 150.743C149.871 145.982 149.822 141.22 149.799 136.459C149.819 131.697 149.868 126.936 150.049 122.175C150.218 117.413 150.466 112.652 150.945 107.891C151.422 112.652 151.671 117.413 151.84 122.175C152.021 126.936 152.071 131.697 152.09 136.459C152.067 141.22 152.019 145.982 151.835 150.743C151.667 155.504 151.418 160.266 150.945 165.027Z" fill="#DADADA"/>
<path d="M158.585 160.707C158.111 155.945 157.863 151.184 157.694 146.423C157.512 141.661 157.462 136.9 157.439 132.138C157.459 127.377 157.508 122.616 157.691 117.854C157.859 113.093 158.108 108.332 158.585 103.57C159.062 108.332 159.312 113.093 159.48 117.854C159.663 122.616 159.711 127.377 159.731 132.138C159.708 136.9 159.66 141.661 159.476 146.423C159.309 151.184 159.06 155.945 158.585 160.707Z" fill="#DADADA"/>
<path d="M166.419 156.121C165.944 151.359 165.697 146.598 165.528 141.837C165.346 137.075 165.296 132.314 165.273 127.553C165.293 122.791 165.342 118.03 165.525 113.268C165.693 108.507 165.942 103.746 166.419 98.9844C166.896 103.746 167.146 108.507 167.313 113.268C167.496 118.03 167.544 122.791 167.565 127.553C167.542 132.314 167.493 137.075 167.31 141.837C167.141 146.598 166.893 151.359 166.419 156.121Z" fill="#DADADA"/>
<path d="M173.872 151.918C173.397 147.156 173.15 142.395 172.982 137.634C172.799 132.872 172.75 128.111 172.727 123.349C172.746 118.588 172.796 113.827 172.977 109.065C173.146 104.304 173.394 99.5426 173.872 94.7812C174.349 99.5426 174.599 104.304 174.766 109.065C174.949 113.827 174.997 118.588 175.018 123.349C174.995 128.111 174.946 132.872 174.763 137.634C174.595 142.395 174.347 147.156 173.872 151.918Z" fill="#DADADA"/>
<path d="M181.706 147.332C181.231 142.57 180.984 137.809 180.816 133.048C180.633 128.286 180.584 123.525 180.561 118.763C180.58 114.002 180.629 109.241 180.811 104.479C180.98 99.718 181.228 94.9567 181.706 90.1953C182.183 94.9567 182.433 99.718 182.6 104.479C182.783 109.241 182.831 114.002 182.851 118.763C182.828 123.525 182.78 128.286 182.596 133.048C182.43 137.809 182.181 142.57 181.706 147.332Z" fill="#DADADA"/>
<path d="M189.156 143.058C188.682 138.297 188.433 133.536 188.265 128.774C188.082 124.013 188.033 119.251 188.01 114.49C188.029 109.729 188.079 104.967 188.261 100.206C188.429 95.4446 188.678 90.6832 189.156 85.9219C189.633 90.6832 189.882 95.4446 190.051 100.206C190.233 104.967 190.282 109.729 190.301 114.49C190.278 119.251 190.23 124.013 190.046 128.774C189.878 133.536 189.629 138.297 189.156 143.058Z" fill="#DADADA"/>
<path d="M196.989 138.468C196.515 133.707 196.267 128.946 196.099 124.184C195.916 119.423 195.867 114.662 195.844 109.9C195.863 105.139 195.913 100.377 196.095 95.6161C196.263 90.8548 196.512 86.0934 196.989 81.332C197.467 86.0934 197.716 90.8548 197.885 95.6161C198.067 100.377 198.116 105.139 198.135 109.9C198.112 114.662 198.063 119.423 197.88 124.184C197.712 128.946 197.463 133.707 196.989 138.468Z" fill="#DADADA"/>
<path d="M204.441 134.269C203.966 129.508 203.718 124.746 203.55 119.985C203.367 115.224 203.318 110.462 203.295 105.701C203.315 100.94 203.364 96.1783 203.546 91.4169C203.713 86.6555 203.962 81.8942 204.44 77.1328C204.917 81.8942 205.166 86.6555 205.334 91.4169C205.516 96.1783 205.565 100.94 205.585 105.701C205.562 110.462 205.513 115.224 205.33 119.985C205.163 124.746 204.916 129.508 204.441 134.269Z" fill="#DADADA"/>
<path d="M212.277 129.679C211.803 124.918 211.554 120.157 211.386 115.395C211.203 110.634 211.154 105.873 211.131 101.111C211.151 96.3498 211.2 91.5884 211.381 86.8271C211.55 82.0657 211.798 77.3043 212.276 72.543C212.753 77.3043 213.002 82.0657 213.171 86.8271C213.353 91.5884 213.402 96.3498 213.421 101.111C213.398 105.873 213.35 110.634 213.166 115.395C212.999 120.157 212.75 124.918 212.277 129.679Z" fill="#DADADA"/>
<path d="M219.726 125.359C219.251 120.598 219.004 115.836 218.835 111.075C218.652 106.314 218.603 101.552 218.58 96.7908C218.6 92.0295 218.649 87.2681 218.831 82.5067C218.999 77.7454 219.248 72.984 219.726 68.2227C220.203 72.984 220.452 77.7454 220.621 82.5067C220.804 87.2681 220.852 92.0295 220.872 96.7908C220.849 101.552 220.8 106.314 220.617 111.075C220.448 115.836 220.2 120.598 219.726 125.359Z" fill="#DADADA"/>
<path d="M227.56 120.773C227.085 116.012 226.838 111.25 226.669 106.489C226.486 101.728 226.437 96.9663 226.414 92.2049C226.434 87.4435 226.483 82.6822 226.665 77.9208C226.833 73.1594 227.082 68.3981 227.56 63.6367C228.037 68.3981 228.286 73.1594 228.455 77.9208C228.637 82.6822 228.686 87.4435 228.706 92.2049C228.683 96.9663 228.634 101.728 228.451 106.489C228.282 111.25 228.035 116.012 227.56 120.773Z" fill="#DADADA"/>
<path d="M235.011 116.57C234.536 111.809 234.289 107.047 234.12 102.286C233.937 97.5245 233.888 92.7631 233.865 88.0018C233.885 83.2404 233.934 78.479 234.116 73.7177C234.284 68.9563 234.533 64.195 235.011 59.4336C235.488 64.195 235.738 68.9563 235.905 73.7177C236.088 78.479 236.136 83.2404 236.156 88.0018C236.133 92.7631 236.085 97.5245 235.901 102.286C235.734 107.047 235.486 111.809 235.011 116.57Z" fill="#DADADA"/>
<path d="M242.847 111.984C242.372 107.223 242.125 102.461 241.956 97.6999C241.773 92.9386 241.724 88.1772 241.701 83.4158C241.721 78.6545 241.77 73.8931 241.952 69.1317C242.12 64.3704 242.369 59.609 242.847 54.8477C243.324 59.609 243.574 64.3704 243.741 69.1317C243.924 73.8931 243.972 78.6545 243.993 83.4158C243.97 88.1772 243.92 92.9386 243.738 97.6999C243.569 102.461 243.321 107.223 242.847 111.984Z" fill="#DADADA"/>
<path d="M250.296 107.711C249.822 102.949 249.574 98.1879 249.405 93.4265C249.223 88.6651 249.173 83.9038 249.15 79.1424C249.17 74.381 249.219 69.6197 249.401 64.8583C249.568 60.0969 249.818 55.3356 250.295 50.5742C250.772 55.3356 251.022 60.0969 251.19 64.8583C251.373 69.6197 251.421 74.381 251.442 79.1424C251.419 83.9038 251.37 88.6651 251.187 93.4265C251.018 98.1879 250.77 102.949 250.296 107.711Z" fill="#DADADA"/>
<path d="M258.13 103.121C257.656 98.3594 257.408 93.598 257.239 88.8366C257.057 84.0753 257.007 79.3139 256.984 74.5526C257.004 69.7912 257.053 65.0298 257.235 60.2685C257.402 55.5071 257.652 50.7457 258.129 45.9844C258.606 50.7457 258.856 55.5071 259.024 60.2685C259.207 65.0298 259.255 69.7912 259.275 74.5526C259.252 79.3139 259.204 84.0753 259.02 88.8366C258.853 93.598 258.605 98.3594 258.13 103.121Z" fill="#DADADA"/>
<path d="M265.583 98.9215C265.108 94.1602 264.861 89.3988 264.692 84.6374C264.51 79.8761 264.46 75.1147 264.438 70.3533C264.457 65.592 264.506 60.8306 264.688 56.0692C264.856 51.3079 265.105 46.5465 265.582 41.7852C266.059 46.5465 266.309 51.3079 266.477 56.0692C266.66 60.8306 266.708 65.592 266.728 70.3533C266.705 75.1147 266.657 79.8761 266.473 84.6374C266.306 89.3988 266.057 94.1602 265.583 98.9215Z" fill="#DADADA"/>
<path d="M273.417 94.3356C272.942 89.5742 272.695 84.8129 272.526 80.0515C272.344 75.2901 272.294 70.5288 272.271 65.7674C272.291 61.006 272.34 56.2447 272.522 51.4833C272.691 46.7219 272.939 41.9606 273.417 37.1992C273.894 41.9606 274.144 46.7219 274.312 51.4833C274.495 56.2447 274.543 61.006 274.563 65.7674C274.54 70.5288 274.492 75.2901 274.308 80.0515C274.139 84.8129 273.891 89.5742 273.417 94.3356Z" fill="#DADADA"/>
<path d="M40.767 106.711C41.3406 106.711 41.8055 106.451 41.8055 106.131C41.8055 105.81 41.3406 105.551 40.767 105.551C40.1935 105.551 39.7285 105.81 39.7285 106.131C39.7285 106.451 40.1935 106.711 40.767 106.711Z" fill="#3C3C3B"/>
<path d="M432.967 186.549L425.421 183.109L422.363 186.74L430.961 191.039L432.967 186.549Z" fill="#2D2D2C"/>
<path d="M449.731 181.42L440.498 208.939L436.342 207.841C431.009 206.475 427.671 197.786 429.747 189.678C431.822 181.572 439.162 176.574 444.495 177.939L450.354 180.423L449.731 181.42Z" fill="#2D2D2C"/>
<path d="M454.861 197.04C452.785 205.147 446.779 210.613 441.447 209.247C436.114 207.881 433.475 200.203 435.55 192.096C437.626 183.988 443.632 178.523 448.965 179.889C454.297 181.255 456.937 188.933 454.861 197.04Z" fill="#3C3C3B"/>
<path d="M451.343 195.84C452.56 191.087 451.012 186.585 447.885 185.785C444.759 184.985 441.238 188.189 440.021 192.941C438.805 197.694 440.353 202.196 443.479 202.996C446.605 203.796 450.126 200.592 451.343 195.84Z" fill="#2D2D2C"/>
<path d="M450.868 196.018C449.651 200.772 446.13 203.976 443.003 203.175C439.877 202.375 438.329 197.872 439.546 193.119C440.763 188.366 444.285 185.162 447.411 185.963C450.538 186.763 452.085 191.265 450.868 196.018Z" fill="#9D9D9C"/>
<path d="M447.938 195.271C447.35 197.564 445.652 199.11 444.144 198.723C442.636 198.337 441.888 196.165 442.476 193.871C443.064 191.577 444.762 190.032 446.27 190.419C447.778 190.805 448.525 192.978 447.938 195.271Z" fill="#DADADA"/>
<path d="M445.778 192.34C445.257 192.207 444.696 192.505 444.277 193.06C444.611 192.811 444.98 192.696 445.332 192.786C446.142 192.992 446.543 194.159 446.227 195.39C446.115 195.83 445.924 196.215 445.691 196.524C446.125 196.199 446.496 195.641 446.674 194.945C446.988 193.714 446.587 192.548 445.778 192.34Z" fill="#B2B2B2"/>
<path d="M443.601 199.911C443.489 200.347 443.167 200.642 442.879 200.567C442.592 200.494 442.45 200.08 442.561 199.645C442.673 199.208 442.996 198.914 443.284 198.988C443.57 199.06 443.713 199.474 443.601 199.911Z" fill="#3C3C3B"/>
<path d="M441.734 197.275C441.622 197.711 441.299 198.005 441.012 197.931C440.725 197.858 440.583 197.444 440.694 197.008C440.806 196.571 441.129 196.278 441.417 196.351C441.703 196.424 441.846 196.838 441.734 197.275Z" fill="#3C3C3B"/>
<path d="M442.084 193.294C441.972 193.731 441.649 194.024 441.361 193.951C441.075 193.878 440.932 193.464 441.044 193.027C441.156 192.591 441.478 192.296 441.766 192.371C442.054 192.445 442.195 192.859 442.084 193.294Z" fill="#3C3C3B"/>
<path d="M444.57 189.544C444.458 189.981 444.135 190.275 443.848 190.201C443.561 190.127 443.419 189.714 443.53 189.277C443.642 188.841 443.965 188.547 444.253 188.621C444.54 188.695 444.683 189.108 444.57 189.544Z" fill="#3C3C3B"/>
<path d="M448.039 189.697C447.927 190.133 447.604 190.426 447.316 190.353C447.03 190.28 446.887 189.866 446.999 189.43C447.111 188.993 447.433 188.7 447.721 188.773C448.008 188.847 448.15 189.26 448.039 189.697Z" fill="#3C3C3B"/>
<path d="M449.789 192.88C449.677 193.317 449.354 193.61 449.066 193.537C448.78 193.463 448.637 193.05 448.749 192.613C448.861 192.176 449.183 191.883 449.471 191.957C449.759 192.031 449.9 192.444 449.789 192.88Z" fill="#3C3C3B"/>
<path d="M448.843 197.383C448.732 197.82 448.409 198.114 448.121 198.04C447.834 197.966 447.692 197.553 447.804 197.117C447.915 196.681 448.238 196.386 448.526 196.461C448.814 196.534 448.956 196.947 448.843 197.383Z" fill="#3C3C3B"/>
<path d="M446.847 199.966C446.736 200.403 446.413 200.696 446.125 200.623C445.838 200.549 445.696 200.136 445.808 199.699C445.919 199.262 446.242 198.969 446.53 199.042C446.817 199.116 446.959 199.529 446.847 199.966Z" fill="#3C3C3B"/>
<path d="M429.275 113.445L447.872 123.889C447.872 123.889 460.1 133.697 459.59 151.148C459.59 151.148 461.501 156.625 460.991 167.834V172.547L450.164 178.661C450.164 178.661 437.367 173.049 431.751 188.398L426.51 191.861L421.456 188.211L414.945 119.751L429.275 113.445Z" fill="#E40000"/>
<path d="M426.512 191.858L431.752 188.395C437.368 173.047 450.165 178.658 450.165 178.658L460.992 172.544V167.831C461.502 156.622 459.592 151.145 459.592 151.145C460.102 133.695 447.874 123.887 447.874 123.887L427.748 135.414L426.512 191.858Z" fill="#C10D0D"/>
<path d="M445.722 129.005L432.915 135.944C432.694 136.064 432.557 136.297 432.561 136.549L432.789 153.597C432.796 154.113 433.353 154.432 433.802 154.177L446.323 147.071C446.534 146.95 446.665 146.727 446.666 146.484L446.723 129.602C446.724 129.089 446.174 128.759 445.722 129.005Z" fill="#24282B"/>
<path d="M446.045 128.926C446.046 128.945 446.053 128.963 446.053 128.983L445.996 145.864C445.995 146.107 445.864 146.331 445.652 146.45L433.131 153.557C433.023 153.618 432.907 153.645 432.795 153.644C432.835 154.13 433.366 154.423 433.8 154.177L446.321 147.071C446.532 146.95 446.663 146.727 446.664 146.484L446.721 129.602C446.722 129.209 446.399 128.927 446.045 128.926Z" fill="#191C1E"/>
<path d="M452.732 134.332L456.374 136.434" stroke="#3C3C3B" stroke-width="0.764269" stroke-miterlimit="10" stroke-linecap="round"/>
<path d="M452.732 146.359L456.374 148.462" stroke="#3C3C3B" stroke-width="0.764269" stroke-miterlimit="10" stroke-linecap="round"/>
<path d="M455.902 133.578V151.228L460.967 154.152V136.531L455.902 133.578Z" fill="#57585C"/>
<path d="M456.193 134.766V150.383L460.675 152.971V137.377L456.193 134.766Z" fill="#24282B"/>
<path d="M455.902 133.579L456.676 133.133L461.711 135.979V153.748L460.967 154.154V136.532L455.902 133.579Z" fill="#3C3C3B"/>
<path d="M430.578 135.79L448.107 126.457L449.2 176.309C449.2 176.309 437.616 171.592 430.828 184.336L430.578 135.79Z" stroke="#E40000" stroke-width="0.573202" stroke-miterlimit="10"/>
<path d="M452.971 176.876L455.636 180.519L462.478 176.52C462.478 176.52 463.582 176.025 464.007 174.007C464.431 171.989 463.57 169.045 461.182 168.281L460.322 172.103L452.971 176.876Z" fill="#24282B"/>
<path d="M381.184 97.3984V154.716C381.184 155.937 382.955 156.927 385.141 156.927C387.326 156.927 389.098 155.938 389.098 154.716V97.3984H381.184Z" fill="#3C3C3B"/>
<path d="M389.098 97.398C389.098 98.6182 387.326 99.6085 385.141 99.6085C382.955 99.6085 381.184 98.6193 381.184 97.398C381.184 96.1779 382.955 95.1875 385.141 95.1875C387.326 95.1875 389.098 96.1768 389.098 97.398Z" fill="#57585C"/>
<path d="M383.609 74.2734V96.4694C383.609 96.9422 384.296 97.3252 385.141 97.3252C385.987 97.3252 386.673 96.9422 386.673 96.4694V74.2734H383.609Z" fill="#3C3C3B"/>
<path d="M386.675 74.2737C386.675 74.7465 385.989 75.1295 385.143 75.1295C384.297 75.1295 383.611 74.7465 383.611 74.2737C383.611 73.801 384.297 73.418 385.143 73.418C385.989 73.418 386.675 73.801 386.675 74.2737Z" fill="#57585C"/>
<path d="M385.117 74.7811C385.69 74.7811 386.155 74.5214 386.155 74.2011C386.155 73.8808 385.69 73.6211 385.117 73.6211C384.543 73.6211 384.078 73.8808 384.078 74.2011C384.078 74.5214 384.543 74.7811 385.117 74.7811Z" fill="#3C3C3B"/>
<path d="M425.594 122.004V179.322C425.594 180.542 427.365 181.532 429.551 181.532C431.736 181.532 433.508 180.543 433.508 179.322V122.004H425.594Z" fill="#3C3C3B"/>
<path d="M433.51 122.003C433.51 123.224 431.738 124.214 429.553 124.214C427.367 124.214 425.596 123.225 425.596 122.003C425.596 120.783 427.367 119.793 429.553 119.793C431.738 119.794 433.51 120.783 433.51 122.003Z" fill="#57585C"/>
<path d="M428.02 98.875V121.071C428.02 121.544 428.706 121.927 429.552 121.927C430.397 121.927 431.084 121.544 431.084 121.071V98.875H428.02Z" fill="#3C3C3B"/>
<path d="M431.086 98.8792C431.086 99.3519 430.399 99.7349 429.554 99.7349C428.708 99.7349 428.021 99.3519 428.021 98.8792C428.021 98.4064 428.708 98.0234 429.554 98.0234C430.399 98.0234 431.086 98.4064 431.086 98.8792Z" fill="#57585C"/>
<path d="M429.552 99.4608C430.126 99.4608 430.591 99.2011 430.591 98.8808C430.591 98.5604 430.126 98.3008 429.552 98.3008C428.979 98.3008 428.514 98.5604 428.514 98.8808C428.514 99.2011 428.979 99.4608 429.552 99.4608Z" fill="#3C3C3B"/>
<path d="M220.635 300.261L235.976 309.118V317.911L179.48 285.326V276.5L220.635 300.261Z" fill="#2D2D2C"/>
<path d="M179.48 276.503L182.518 274.75L238.814 307.419L235.976 309.121L179.48 276.503Z" fill="#3C3C3B"/>
<path d="M238.815 307.418V316.225L235.977 317.914V309.121L238.815 307.418Z" fill="#57585C"/>
<path d="M344.03 237.696L336.483 234.258L333.426 237.888L342.024 242.187L344.03 237.696Z" fill="#2D2D2C"/>
<path d="M360.794 232.567L351.562 260.087L347.406 258.988C342.074 257.622 338.735 248.933 340.811 240.827C342.887 232.72 350.226 227.722 355.559 229.087L361.418 231.571L360.794 232.567Z" fill="#2D2D2C"/>
<path d="M365.931 248.223C368.007 240.117 365.368 232.438 360.036 231.072C354.704 229.707 348.699 235.172 346.623 243.278C344.546 251.385 347.186 259.064 352.517 260.43C357.849 261.795 363.854 256.33 365.931 248.223Z" fill="#3C3C3B"/>
<path d="M362.44 246.975C361.223 251.729 357.702 254.933 354.575 254.132C351.449 253.332 349.902 248.829 351.119 244.076C352.335 239.323 355.857 236.119 358.983 236.92C362.11 237.72 363.657 242.222 362.44 246.975Z" fill="#2D2D2C"/>
<path d="M361.931 247.167C360.714 251.919 357.192 255.125 354.066 254.324C350.939 253.522 349.392 249.02 350.609 244.268C351.826 239.514 355.347 236.31 358.474 237.111C361.6 237.912 363.147 242.414 361.931 247.167Z" fill="#9D9D9C"/>
<path d="M359 246.418C358.413 248.712 356.714 250.257 355.206 249.871C353.698 249.484 352.951 247.312 353.538 245.02C354.126 242.726 355.825 241.181 357.332 241.567C358.84 241.952 359.588 244.124 359 246.418Z" fill="#DADADA"/>
<path d="M356.84 243.489C356.319 243.355 355.759 243.654 355.34 244.209C355.674 243.959 356.042 243.844 356.395 243.934C357.205 244.141 357.605 245.307 357.29 246.538C357.177 246.978 356.987 247.364 356.754 247.672C357.187 247.347 357.558 246.789 357.736 246.093C358.05 244.862 357.65 243.695 356.84 243.489Z" fill="#B2B2B2"/>
<path d="M354.666 251.052C354.554 251.489 354.231 251.783 353.943 251.709C353.657 251.636 353.514 251.222 353.626 250.785C353.738 250.349 354.061 250.054 354.348 250.129C354.635 250.203 354.777 250.617 354.666 251.052Z" fill="#3C3C3B"/>
<path d="M352.794 248.416C352.683 248.852 352.36 249.147 352.072 249.072C351.786 248.999 351.643 248.585 351.755 248.149C351.866 247.712 352.189 247.418 352.477 247.492C352.765 247.566 352.906 247.98 352.794 248.416Z" fill="#3C3C3B"/>
<path d="M353.146 244.435C353.034 244.871 352.71 245.166 352.424 245.091C352.137 245.018 351.995 244.604 352.106 244.168C352.218 243.731 352.541 243.438 352.829 243.511C353.116 243.586 353.258 243.998 353.146 244.435Z" fill="#3C3C3B"/>
<path d="M355.634 240.689C355.523 241.125 355.2 241.42 354.912 241.345C354.625 241.272 354.483 240.858 354.595 240.422C354.706 239.985 355.029 239.692 355.317 239.765C355.605 239.84 355.747 240.253 355.634 240.689Z" fill="#3C3C3B"/>
<path d="M359.101 240.84C358.989 241.277 358.667 241.57 358.379 241.497C358.092 241.424 357.95 241.01 358.062 240.574C358.173 240.138 358.496 239.843 358.784 239.918C359.07 239.99 359.213 240.404 359.101 240.84Z" fill="#3C3C3B"/>
<path d="M360.851 244.024C360.739 244.46 360.416 244.753 360.129 244.68C359.842 244.607 359.7 244.193 359.811 243.758C359.923 243.322 360.246 243.028 360.534 243.101C360.822 243.173 360.963 243.587 360.851 244.024Z" fill="#3C3C3B"/>
<path d="M359.904 248.529C359.792 248.965 359.469 249.26 359.182 249.185C358.895 249.112 358.753 248.698 358.864 248.262C358.976 247.825 359.299 247.532 359.586 247.605C359.873 247.678 360.015 248.092 359.904 248.529Z" fill="#3C3C3B"/>
<path d="M357.908 251.115C357.796 251.551 357.473 251.846 357.185 251.771C356.899 251.698 356.757 251.284 356.868 250.848C356.98 250.411 357.303 250.117 357.59 250.191C357.877 250.266 358.019 250.679 357.908 251.115Z" fill="#3C3C3B"/>
<path d="M379.116 217.963L371.569 214.523L368.512 218.153L377.11 222.453L379.116 217.963Z" fill="#2D2D2C"/>
<path d="M395.881 212.833L386.649 240.352L382.492 239.254C377.16 237.888 373.821 229.199 375.897 221.092C377.973 212.986 385.312 207.988 390.645 209.353L396.504 211.837L395.881 212.833Z" fill="#2D2D2C"/>
<path d="M401.021 228.489C403.097 220.382 400.458 212.703 395.126 211.338C389.794 209.972 383.789 215.437 381.713 223.544C379.636 231.651 382.275 239.33 387.607 240.695C392.939 242.061 398.944 236.596 401.021 228.489Z" fill="#3C3C3B"/>
<path d="M397.528 227.245C396.311 231.999 392.79 235.203 389.663 234.402C386.537 233.601 384.99 229.099 386.206 224.346C387.423 219.592 390.945 216.388 394.071 217.189C397.197 217.989 398.745 222.491 397.528 227.245Z" fill="#2D2D2C"/>
<path d="M397.018 227.436C395.802 232.19 392.28 235.394 389.154 234.593C386.027 233.792 384.48 229.29 385.697 224.537C386.914 219.784 390.435 216.58 393.561 217.381C396.688 218.18 398.235 222.684 397.018 227.436Z" fill="#9D9D9C"/>
<path d="M394.088 226.681C393.5 228.975 391.802 230.52 390.294 230.133C388.786 229.747 388.039 227.575 388.626 225.281C389.214 222.988 390.912 221.442 392.42 221.829C393.928 222.215 394.675 224.387 394.088 226.681Z" fill="#DADADA"/>
<path d="M391.93 223.754C391.409 223.621 390.849 223.92 390.43 224.474C390.763 224.225 391.132 224.11 391.485 224.2C392.294 224.406 392.695 225.573 392.38 226.804C392.267 227.244 392.077 227.629 391.844 227.938C392.277 227.613 392.648 227.055 392.826 226.359C393.14 225.128 392.74 223.961 391.93 223.754Z" fill="#B2B2B2"/>
<path d="M389.751 231.325C389.64 231.761 389.317 232.056 389.029 231.981C388.743 231.908 388.6 231.494 388.712 231.059C388.824 230.622 389.146 230.328 389.434 230.402C389.721 230.475 389.863 230.889 389.751 231.325Z" fill="#3C3C3B"/>
<path d="M387.884 228.689C387.773 229.125 387.45 229.419 387.162 229.345C386.875 229.272 386.733 228.858 386.845 228.422C386.956 227.985 387.279 227.692 387.567 227.765C387.854 227.84 387.996 228.253 387.884 228.689Z" fill="#3C3C3B"/>
<path d="M388.234 224.708C388.122 225.145 387.799 225.438 387.512 225.365C387.225 225.292 387.083 224.878 387.194 224.441C387.306 224.005 387.629 223.711 387.917 223.785C388.203 223.859 388.346 224.272 388.234 224.708Z" fill="#3C3C3B"/>
<path d="M390.722 220.958C390.611 221.395 390.288 221.688 390 221.615C389.713 221.542 389.571 221.128 389.683 220.691C389.794 220.255 390.117 219.961 390.405 220.035C390.693 220.108 390.834 220.522 390.722 220.958Z" fill="#3C3C3B"/>
<path d="M394.189 221.111C394.077 221.547 393.755 221.841 393.467 221.767C393.18 221.694 393.038 221.28 393.149 220.844C393.261 220.407 393.584 220.114 393.872 220.187C394.158 220.26 394.301 220.674 394.189 221.111Z" fill="#3C3C3B"/>
<path d="M395.939 224.294C395.827 224.731 395.505 225.024 395.217 224.951C394.93 224.877 394.788 224.464 394.899 224.027C395.011 223.591 395.334 223.297 395.622 223.371C395.909 223.444 396.051 223.858 395.939 224.294Z" fill="#3C3C3B"/>
<path d="M394.992 228.797C394.88 229.234 394.557 229.527 394.269 229.454C393.983 229.381 393.841 228.967 393.952 228.531C394.064 228.095 394.387 227.8 394.674 227.875C394.962 227.947 395.103 228.361 394.992 228.797Z" fill="#3C3C3B"/>
<path d="M392.996 231.383C392.884 231.82 392.561 232.114 392.273 232.04C391.987 231.966 391.844 231.553 391.956 231.117C392.068 230.681 392.39 230.386 392.678 230.461C392.966 230.534 393.108 230.947 392.996 231.383Z" fill="#3C3C3B"/>
<path d="M320.541 251.509L312.995 248.07L309.938 251.7L318.536 255.999L320.541 251.509Z" fill="#2D2D2C"/>
<path d="M337.304 246.379L328.071 273.899L323.916 272.801C318.584 271.435 315.245 262.746 317.321 254.639C319.397 246.533 326.736 241.535 332.069 242.899L337.928 245.384L337.304 246.379Z" fill="#2D2D2C"/>
<path d="M342.439 262.033C344.515 253.926 341.875 246.247 336.543 244.881C331.211 243.515 325.205 248.98 323.129 257.087C321.052 265.194 323.692 272.873 329.024 274.238C334.357 275.604 340.362 270.139 342.439 262.033Z" fill="#3C3C3B"/>
<path d="M338.95 260.788C337.733 265.541 334.212 268.746 331.085 267.945C327.959 267.144 326.411 262.642 327.628 257.889C328.845 253.135 332.367 249.931 335.493 250.732C338.62 251.532 340.167 256.034 338.95 260.788Z" fill="#2D2D2C"/>
<path d="M338.442 260.979C337.225 265.733 333.704 268.937 330.577 268.136C327.451 267.335 325.904 262.833 327.12 258.08C328.337 253.328 331.859 250.122 334.985 250.923C338.112 251.725 339.659 256.227 338.442 260.979Z" fill="#9D9D9C"/>
<path d="M335.51 260.232C334.922 262.525 333.224 264.071 331.716 263.684C330.208 263.298 329.461 261.126 330.048 258.832C330.636 256.538 332.334 254.993 333.842 255.379C335.35 255.766 336.098 257.938 335.51 260.232Z" fill="#DADADA"/>
<path d="M333.352 257.301C332.831 257.168 332.271 257.466 331.852 258.021C332.185 257.772 332.554 257.657 332.907 257.747C333.716 257.953 334.117 259.12 333.802 260.351C333.689 260.791 333.498 261.176 333.265 261.485C333.699 261.16 334.07 260.602 334.248 259.906C334.562 258.675 334.162 257.508 333.352 257.301Z" fill="#B2B2B2"/>
<path d="M331.175 264.872C331.064 265.309 330.741 265.603 330.453 265.529C330.166 265.456 330.024 265.042 330.136 264.605C330.247 264.169 330.571 263.875 330.858 263.949C331.145 264.023 331.287 264.437 331.175 264.872Z" fill="#3C3C3B"/>
<path d="M329.306 262.236C329.195 262.672 328.872 262.967 328.584 262.892C328.297 262.819 328.155 262.405 328.267 261.969C328.378 261.532 328.701 261.239 328.989 261.312C329.277 261.386 329.418 261.8 329.306 262.236Z" fill="#3C3C3B"/>
<path d="M329.656 258.255C329.544 258.692 329.221 258.986 328.934 258.912C328.647 258.839 328.505 258.425 328.616 257.988C328.728 257.552 329.051 257.257 329.338 257.332C329.626 257.406 329.768 257.819 329.656 258.255Z" fill="#3C3C3B"/>
<path d="M332.144 254.504C332.032 254.941 331.71 255.234 331.422 255.161C331.135 255.088 330.993 254.674 331.104 254.238C331.216 253.802 331.539 253.507 331.827 253.582C332.113 253.654 332.256 254.068 332.144 254.504Z" fill="#3C3C3B"/>
<path d="M335.611 254.657C335.499 255.094 335.176 255.388 334.889 255.314C334.602 255.241 334.46 254.827 334.571 254.39C334.683 253.954 335.006 253.661 335.294 253.734C335.58 253.807 335.722 254.221 335.611 254.657Z" fill="#3C3C3B"/>
<path d="M337.363 257.841C337.251 258.278 336.928 258.572 336.641 258.498C336.354 258.425 336.212 258.011 336.323 257.574C336.435 257.138 336.758 256.843 337.045 256.918C337.332 256.991 337.474 257.405 337.363 257.841Z" fill="#3C3C3B"/>
<path d="M336.416 262.345C336.304 262.782 335.981 263.075 335.693 263.002C335.407 262.929 335.264 262.515 335.376 262.078C335.488 261.642 335.81 261.347 336.098 261.422C336.385 261.495 336.527 261.909 336.416 262.345Z" fill="#3C3C3B"/>
<path d="M334.418 264.927C334.306 265.364 333.983 265.657 333.695 265.584C333.409 265.511 333.266 265.097 333.378 264.66C333.49 264.224 333.812 263.929 334.1 264.004C334.387 264.078 334.529 264.491 334.418 264.927Z" fill="#3C3C3B"/>
<path d="M253.871 289.353L246.324 285.914L243.268 289.544L251.866 293.843L253.871 289.353Z" fill="#2D2D2C"/>
<path d="M270.633 284.223L261.401 311.743L257.244 310.644C251.912 309.279 248.573 300.59 250.649 292.483C252.725 284.376 260.064 279.379 265.397 280.743L271.256 283.227L270.633 284.223Z" fill="#2D2D2C"/>
<path d="M275.765 299.876C277.841 291.769 275.202 284.091 269.869 282.725C264.537 281.359 258.531 286.824 256.455 294.931C254.378 303.037 257.018 310.716 262.35 312.082C267.683 313.448 273.689 307.983 275.765 299.876Z" fill="#3C3C3B"/>
<path d="M272.28 298.635C271.063 303.389 267.542 306.593 264.415 305.792C261.289 304.991 259.741 300.489 260.958 295.737C262.175 290.983 265.697 287.779 268.823 288.58C271.95 289.381 273.498 293.882 272.28 298.635Z" fill="#2D2D2C"/>
<path d="M271.772 298.823C270.555 303.576 267.034 306.781 263.907 305.98C260.781 305.179 259.234 300.677 260.451 295.924C261.667 291.17 265.189 287.966 268.315 288.767C271.442 289.567 272.989 294.07 271.772 298.823Z" fill="#9D9D9C"/>
<path d="M268.84 298.075C268.252 300.369 266.554 301.914 265.046 301.528C263.538 301.142 262.791 298.969 263.378 296.676C263.966 294.382 265.664 292.837 267.172 293.223C268.68 293.61 269.427 295.782 268.84 298.075Z" fill="#DADADA"/>
<path d="M266.682 295.149C266.161 295.015 265.601 295.314 265.182 295.869C265.515 295.619 265.884 295.504 266.237 295.594C267.046 295.801 267.447 296.968 267.132 298.199C267.019 298.639 266.829 299.024 266.595 299.332C267.029 299.007 267.4 298.449 267.578 297.753C267.893 296.522 267.492 295.356 266.682 295.149Z" fill="#B2B2B2"/>
<path d="M264.503 302.716C264.392 303.153 264.069 303.446 263.781 303.373C263.494 303.3 263.352 302.886 263.464 302.449C263.575 302.013 263.898 301.718 264.186 301.793C264.474 301.867 264.615 302.281 264.503 302.716Z" fill="#3C3C3B"/>
<path d="M262.636 300.08C262.525 300.516 262.202 300.811 261.914 300.736C261.627 300.663 261.485 300.249 261.597 299.813C261.708 299.376 262.031 299.082 262.319 299.156C262.606 299.23 262.748 299.644 262.636 300.08Z" fill="#3C3C3B"/>
<path d="M262.986 296.099C262.874 296.536 262.551 296.829 262.264 296.755C261.977 296.682 261.835 296.269 261.946 295.832C262.058 295.395 262.382 295.102 262.669 295.175C262.955 295.25 263.097 295.662 262.986 296.099Z" fill="#3C3C3B"/>
<path d="M265.474 292.349C265.363 292.786 265.04 293.08 264.752 293.006C264.465 292.932 264.323 292.519 264.435 292.082C264.546 291.645 264.869 291.351 265.157 291.426C265.444 291.5 265.586 291.914 265.474 292.349Z" fill="#3C3C3B"/>
<path d="M268.941 292.505C268.829 292.942 268.506 293.236 268.219 293.162C267.932 293.089 267.79 292.675 267.901 292.238C268.013 291.802 268.336 291.507 268.624 291.582C268.91 291.655 269.053 292.069 268.941 292.505Z" fill="#3C3C3B"/>
<path d="M270.691 295.689C270.579 296.125 270.257 296.42 269.969 296.345C269.682 296.272 269.54 295.858 269.651 295.422C269.763 294.985 270.086 294.692 270.374 294.765C270.66 294.838 270.803 295.252 270.691 295.689Z" fill="#3C3C3B"/>
<path d="M269.746 300.189C269.634 300.626 269.311 300.92 269.023 300.846C268.737 300.772 268.594 300.359 268.706 299.922C268.818 299.485 269.14 299.191 269.428 299.265C269.715 299.339 269.857 299.752 269.746 300.189Z" fill="#3C3C3B"/>
<path d="M267.748 302.775C267.636 303.212 267.313 303.506 267.025 303.432C266.739 303.358 266.596 302.945 266.708 302.508C266.82 302.071 267.142 301.777 267.43 301.851C267.717 301.926 267.859 302.339 267.748 302.775Z" fill="#3C3C3B"/>
<path d="M394.838 199.332L402.428 203.713L423.575 191.932L415.613 187.336L394.838 199.332Z" fill="#3C3C3B"/>
<path d="M402.428 203.714V215.682L394.838 211.327V199.332L402.428 203.714Z" fill="#2D2D2C"/>
<path d="M423.574 191.934V203.882L402.428 215.684V203.715L423.574 191.934Z" fill="#57585C"/>
<path d="M272.93 270.478L280.521 274.859L314.882 254.987L306.922 250.391L272.93 270.478Z" fill="#3C3C3B"/>
<path d="M280.521 274.862V286.831L272.93 282.475V270.48L280.521 274.862Z" fill="#2D2D2C"/>
<path d="M314.883 254.988V266.936L280.521 286.83V274.861L314.883 254.988Z" fill="#57585C"/>
<path d="M187.123 210.317L389.369 93.5508L427.87 115.446L225.335 232.38L187.123 210.317Z" fill="#F6F6F6"/>
<path d="M225.335 232.379V306.958L187.263 284.286L187.123 210.316L225.335 232.379Z" fill="#DADADA"/>
<path d="M225.334 232.379V306.958L427.998 190.542L427.869 115.445L225.334 232.379Z" fill="#EDEDED"/>
<path d="M241.025 293.462C240.913 293.899 240.59 294.193 240.303 294.119C240.016 294.046 239.874 293.632 239.985 293.195C240.097 292.759 240.421 292.464 240.708 292.539C240.994 292.613 241.137 293.027 241.025 293.462Z" fill="#3C3C3B"/>
<path d="M248.572 289.134C248.46 289.571 248.136 289.864 247.85 289.791C247.563 289.717 247.421 289.304 247.532 288.867C247.644 288.43 247.967 288.137 248.254 288.21C248.542 288.284 248.683 288.697 248.572 289.134Z" fill="#3C3C3B"/>
<path d="M256.501 284.637C256.39 285.074 256.067 285.368 255.779 285.294C255.493 285.22 255.35 284.807 255.462 284.371C255.574 283.935 255.896 283.64 256.184 283.715C256.471 283.787 256.613 284.2 256.501 284.637Z" fill="#3C3C3B"/>
<path d="M264.048 280.31C263.937 280.746 263.614 281.041 263.326 280.966C263.039 280.893 262.897 280.479 263.009 280.043C263.12 279.606 263.443 279.313 263.731 279.386C264.018 279.461 264.16 279.874 264.048 280.31Z" fill="#3C3C3B"/>
<path d="M271.689 275.856C271.577 276.293 271.255 276.586 270.967 276.512C270.68 276.439 270.538 276.026 270.649 275.59C270.761 275.153 271.084 274.859 271.372 274.933C271.659 275.006 271.801 275.419 271.689 275.856Z" fill="#3C3C3B"/>
<path d="M279.236 271.521C279.124 271.957 278.801 272.252 278.514 272.177C278.227 272.104 278.085 271.69 278.196 271.254C278.308 270.817 278.631 270.524 278.919 270.597C279.205 270.672 279.347 271.084 279.236 271.521Z" fill="#3C3C3B"/>
<path d="M287.166 267.032C287.054 267.469 286.731 267.763 286.443 267.689C286.157 267.616 286.014 267.202 286.126 266.765C286.238 266.329 286.56 266.036 286.848 266.109C287.136 266.183 287.278 266.596 287.166 267.032Z" fill="#3C3C3B"/>
<path d="M294.712 262.701C294.601 263.137 294.278 263.432 293.99 263.357C293.703 263.284 293.561 262.87 293.673 262.434C293.784 261.997 294.107 261.703 294.395 261.777C294.682 261.85 294.824 262.264 294.712 262.701Z" fill="#3C3C3B"/>
<path d="M302.515 258.185C302.404 258.621 302.081 258.915 301.793 258.841C301.506 258.768 301.364 258.354 301.476 257.918C301.587 257.481 301.911 257.188 302.198 257.261C302.486 257.335 302.627 257.748 302.515 258.185Z" fill="#3C3C3B"/>
<path d="M310.062 253.849C309.95 254.286 309.628 254.58 309.34 254.506C309.053 254.432 308.911 254.019 309.022 253.582C309.134 253.146 309.457 252.851 309.745 252.926C310.031 253 310.174 253.413 310.062 253.849Z" fill="#3C3C3B"/>
<path d="M317.992 249.361C317.88 249.798 317.557 250.092 317.269 250.017C316.983 249.944 316.841 249.531 316.952 249.094C317.064 248.657 317.387 248.363 317.674 248.437C317.962 248.512 318.104 248.924 317.992 249.361Z" fill="#3C3C3B"/>
<path d="M325.539 245.029C325.427 245.465 325.103 245.758 324.816 245.685C324.53 245.612 324.387 245.198 324.499 244.762C324.611 244.325 324.933 244.032 325.221 244.105C325.508 244.178 325.65 244.592 325.539 245.029Z" fill="#3C3C3B"/>
<path d="M333.181 240.571C333.07 241.007 332.747 241.302 332.459 241.227C332.172 241.154 332.03 240.74 332.142 240.305C332.253 239.868 332.576 239.574 332.864 239.648C333.151 239.72 333.293 240.134 333.181 240.571Z" fill="#3C3C3B"/>
<path d="M340.728 236.236C340.616 236.672 340.294 236.967 340.006 236.892C339.719 236.819 339.577 236.405 339.688 235.969C339.8 235.532 340.123 235.239 340.411 235.312C340.697 235.386 340.84 235.799 340.728 236.236Z" fill="#3C3C3B"/>
<path d="M348.658 231.747C348.546 232.183 348.223 232.476 347.935 232.403C347.649 232.33 347.507 231.916 347.618 231.481C347.73 231.044 348.053 230.75 348.34 230.824C348.627 230.897 348.769 231.311 348.658 231.747Z" fill="#3C3C3B"/>
<path d="M356.203 227.419C356.091 227.856 355.768 228.15 355.48 228.076C355.194 228.002 355.051 227.589 355.163 227.152C355.275 226.716 355.598 226.422 355.885 226.496C356.173 226.569 356.314 226.983 356.203 227.419Z" fill="#3C3C3B"/>
<path d="M363.591 223.024C363.48 223.46 363.157 223.755 362.869 223.68C362.582 223.607 362.44 223.193 362.552 222.758C362.663 222.321 362.986 222.027 363.274 222.101C363.562 222.175 363.704 222.587 363.591 223.024Z" fill="#3C3C3B"/>
<path d="M371.138 218.692C371.027 219.128 370.704 219.421 370.416 219.348C370.129 219.275 369.987 218.861 370.099 218.426C370.21 217.989 370.533 217.696 370.821 217.769C371.108 217.841 371.25 218.255 371.138 218.692Z" fill="#3C3C3B"/>
<path d="M379.068 214.2C378.956 214.636 378.633 214.93 378.346 214.856C378.059 214.783 377.917 214.369 378.028 213.934C378.14 213.497 378.463 213.203 378.751 213.277C379.037 213.349 379.18 213.763 379.068 214.2Z" fill="#3C3C3B"/>
<path d="M386.615 209.872C386.503 210.309 386.18 210.603 385.892 210.529C385.606 210.456 385.464 210.042 385.575 209.605C385.687 209.169 386.011 208.875 386.297 208.949C386.584 209.023 386.726 209.436 386.615 209.872Z" fill="#3C3C3B"/>
<path d="M394.257 205.411C394.146 205.848 393.823 206.141 393.535 206.068C393.248 205.995 393.106 205.581 393.218 205.144C393.329 204.708 393.652 204.414 393.94 204.488C394.227 204.562 394.369 204.976 394.257 205.411Z" fill="#3C3C3B"/>
<path d="M401.804 201.086C401.693 201.523 401.37 201.817 401.082 201.743C400.795 201.67 400.653 201.256 400.765 200.82C400.876 200.384 401.199 200.089 401.487 200.164C401.775 200.236 401.916 200.65 401.804 201.086Z" fill="#3C3C3B"/>
<path d="M409.734 196.595C409.622 197.032 409.299 197.325 409.012 197.252C408.725 197.178 408.583 196.765 408.694 196.328C408.806 195.891 409.129 195.598 409.417 195.671C409.703 195.745 409.846 196.158 409.734 196.595Z" fill="#3C3C3B"/>
<path d="M417.279 192.262C417.167 192.699 416.844 192.992 416.557 192.919C416.27 192.845 416.128 192.432 416.239 191.996C416.351 191.561 416.674 191.265 416.961 191.34C417.249 191.413 417.392 191.827 417.279 192.262Z" fill="#3C3C3B"/>
<path d="M240.519 289.605C240.044 284.844 239.797 280.082 239.628 275.321C239.445 270.56 239.396 265.798 239.373 261.037C239.393 256.276 239.442 251.514 239.624 246.753C239.792 241.991 240.041 237.23 240.519 232.469C240.996 237.23 241.245 241.991 241.414 246.753C241.597 251.514 241.645 256.276 241.665 261.037C241.642 265.798 241.593 270.56 241.41 275.321C241.242 280.082 240.994 284.844 240.519 289.605Z" fill="#DADADA"/>
<path d="M248.353 285.019C247.878 280.258 247.631 275.496 247.462 270.735C247.279 265.974 247.23 261.212 247.207 256.451C247.227 251.69 247.276 246.928 247.458 242.167C247.626 237.406 247.875 232.644 248.353 227.883C248.83 232.644 249.079 237.406 249.247 242.167C249.43 246.928 249.478 251.69 249.499 256.451C249.476 261.212 249.426 265.974 249.244 270.735C249.075 275.496 248.827 280.258 248.353 285.019Z" fill="#DADADA"/>
<path d="M255.804 280.816C255.329 276.055 255.082 271.293 254.913 266.532C254.73 261.771 254.681 257.009 254.658 252.248C254.678 247.487 254.727 242.725 254.909 237.964C255.077 233.202 255.326 228.441 255.804 223.68C256.281 228.441 256.531 233.202 256.698 237.964C256.881 242.725 256.929 247.487 256.949 252.248C256.926 257.009 256.877 261.771 256.694 266.532C256.526 271.293 256.279 276.055 255.804 280.816Z" fill="#DADADA"/>
<path d="M263.638 276.23C263.163 271.469 262.916 266.707 262.747 261.946C262.564 257.185 262.515 252.423 262.492 247.662C262.512 242.901 262.561 238.139 262.743 233.378C262.911 228.616 263.16 223.855 263.638 219.094C264.115 223.855 264.365 228.616 264.532 233.378C264.715 238.139 264.763 242.901 264.783 247.662C264.76 252.423 264.711 257.185 264.528 261.946C264.361 266.707 264.113 271.469 263.638 276.23Z" fill="#DADADA"/>
<path d="M271.089 271.957C270.614 267.195 270.367 262.434 270.198 257.673C270.016 252.911 269.966 248.15 269.943 243.388C269.963 238.627 270.012 233.866 270.194 229.104C270.362 224.343 270.611 219.582 271.089 214.82C271.566 219.582 271.816 224.343 271.983 229.104C272.166 233.866 272.214 238.627 272.234 243.388C272.211 248.15 272.163 252.911 271.979 257.673C271.811 262.434 271.563 267.195 271.089 271.957Z" fill="#DADADA"/>
<path d="M278.923 267.367C278.448 262.605 278.201 257.844 278.032 253.083C277.85 248.321 277.8 243.56 277.777 238.799C277.797 234.037 277.846 229.276 278.028 224.515C278.196 219.753 278.445 214.992 278.923 210.23C279.4 214.992 279.65 219.753 279.817 224.515C280 229.276 280.048 234.037 280.068 238.799C280.045 243.56 279.997 248.321 279.813 253.083C279.645 257.844 279.397 262.605 278.923 267.367Z" fill="#DADADA"/>
<path d="M286.372 263.168C285.898 258.406 285.65 253.645 285.482 248.884C285.299 244.122 285.25 239.361 285.227 234.599C285.246 229.838 285.296 225.077 285.477 220.315C285.645 215.554 285.894 210.793 286.371 206.031C286.848 210.793 287.098 215.554 287.266 220.315C287.449 225.077 287.497 229.838 287.517 234.599C287.494 239.361 287.446 244.122 287.262 248.884C287.095 253.645 286.847 258.406 286.372 263.168Z" fill="#DADADA"/>
<path d="M294.206 258.578C293.732 253.816 293.484 249.055 293.316 244.294C293.133 239.532 293.084 234.771 293.061 230.01C293.08 225.248 293.129 220.487 293.311 215.726C293.479 210.964 293.728 206.203 294.205 201.441C294.682 206.203 294.932 210.964 295.1 215.726C295.283 220.487 295.331 225.248 295.351 230.01C295.328 234.771 295.28 239.532 295.096 244.294C294.93 249.056 294.681 253.818 294.206 258.578Z" fill="#DADADA"/>
<path d="M301.849 254.257C301.374 249.496 301.127 244.735 300.958 239.973C300.775 235.212 300.726 230.451 300.703 225.689C300.723 220.928 300.772 216.167 300.954 211.405C301.122 206.644 301.371 201.882 301.849 197.121C302.326 201.882 302.575 206.644 302.743 211.405C302.926 216.167 302.974 220.928 302.994 225.689C302.971 230.451 302.922 235.212 302.739 239.973C302.572 244.735 302.324 249.496 301.849 254.257Z" fill="#DADADA"/>
<path d="M309.683 249.672C309.208 244.91 308.961 240.149 308.792 235.387C308.609 230.626 308.56 225.865 308.537 221.103C308.557 216.342 308.606 211.581 308.788 206.819C308.956 202.058 309.205 197.297 309.683 192.535C310.16 197.297 310.409 202.058 310.578 206.819C310.761 211.581 310.809 216.342 310.829 221.103C310.806 225.865 310.757 230.626 310.574 235.387C310.405 240.149 310.157 244.91 309.683 249.672Z" fill="#DADADA"/>
<path d="M317.136 245.468C316.661 240.707 316.414 235.946 316.245 231.184C316.062 226.423 316.013 221.662 315.99 216.9C316.01 212.139 316.059 207.377 316.241 202.616C316.409 197.855 316.658 193.093 317.136 188.332C317.613 193.093 317.863 197.855 318.03 202.616C318.213 207.377 318.261 212.139 318.282 216.9C318.259 221.662 318.211 226.423 318.027 231.184C317.858 235.946 317.61 240.707 317.136 245.468Z" fill="#DADADA"/>
<path d="M324.968 240.882C324.493 236.121 324.246 231.36 324.077 226.598C323.894 221.837 323.845 217.076 323.822 212.314C323.842 207.553 323.891 202.792 324.073 198.03C324.241 193.269 324.49 188.507 324.968 183.746C325.445 188.507 325.695 193.269 325.862 198.03C326.045 202.792 326.093 207.553 326.113 212.314C326.09 217.076 326.042 221.837 325.858 226.598C325.691 231.36 325.443 236.121 324.968 240.882Z" fill="#DADADA"/>
<path d="M332.419 236.609C331.944 231.848 331.697 227.086 331.528 222.325C331.346 217.564 331.296 212.802 331.273 208.041C331.293 203.279 331.342 198.518 331.525 193.757C331.693 188.995 331.942 184.234 332.419 179.473C332.896 184.234 333.146 188.995 333.313 193.757C333.496 198.518 333.544 203.279 333.564 208.041C333.541 212.802 333.493 217.564 333.309 222.325C333.143 227.086 332.894 231.848 332.419 236.609Z" fill="#DADADA"/>
<path d="M340.253 232.019C339.779 227.258 339.531 222.496 339.362 217.735C339.18 212.974 339.13 208.212 339.107 203.451C339.127 198.69 339.176 193.928 339.359 189.167C339.527 184.406 339.776 179.644 340.253 174.883C340.73 179.644 340.98 184.406 341.148 189.167C341.331 193.928 341.379 198.69 341.399 203.451C341.376 208.212 341.328 212.974 341.144 217.735C340.975 222.496 340.727 227.258 340.253 232.019Z" fill="#DADADA"/>
<path d="M347.706 227.82C347.231 223.059 346.984 218.297 346.816 213.536C346.633 208.774 346.584 204.013 346.561 199.252C346.58 194.49 346.63 189.729 346.812 184.968C346.98 180.206 347.229 175.445 347.706 170.684C348.183 175.445 348.433 180.206 348.601 184.968C348.784 189.729 348.832 194.49 348.853 199.252C348.83 204.013 348.781 208.774 348.598 213.536C348.429 218.297 348.18 223.059 347.706 227.82Z" fill="#DADADA"/>
<path d="M355.538 223.234C355.063 218.473 354.816 213.711 354.648 208.95C354.465 204.189 354.416 199.427 354.393 194.666C354.412 189.904 354.462 185.143 354.643 180.382C354.811 175.62 355.06 170.859 355.537 166.098C356.014 170.859 356.264 175.62 356.431 180.382C356.614 185.143 356.662 189.904 356.683 194.666C356.66 199.427 356.611 204.189 356.428 208.95C356.262 213.711 356.013 218.473 355.538 223.234Z" fill="#DADADA"/>
<path d="M362.989 218.91C362.516 214.148 362.267 209.387 362.099 204.626C361.916 199.864 361.867 195.103 361.844 190.342C361.863 185.58 361.913 180.819 362.094 176.058C362.262 171.296 362.511 166.535 362.988 161.773C363.466 166.535 363.715 171.296 363.884 176.058C364.066 180.819 364.114 185.58 364.135 190.342C364.112 195.103 364.063 199.864 363.88 204.626C363.712 209.387 363.463 214.148 362.989 218.91Z" fill="#DADADA"/>
<path d="M370.823 214.324C370.349 209.563 370.101 204.801 369.933 200.04C369.75 195.278 369.701 190.517 369.678 185.756C369.697 180.994 369.747 176.233 369.928 171.472C370.097 166.71 370.345 161.949 370.823 157.188C371.301 161.949 371.55 166.71 371.719 171.472C371.901 176.233 371.95 180.994 371.969 185.756C371.946 190.517 371.898 195.278 371.714 200.04C371.546 204.801 371.297 209.563 370.823 214.324Z" fill="#DADADA"/>
<path d="M378.275 210.121C377.8 205.359 377.552 200.598 377.384 195.837C377.201 191.075 377.152 186.314 377.129 181.553C377.149 176.791 377.198 172.03 377.38 167.268C377.548 162.507 377.796 157.746 378.275 152.984C378.752 157.746 379.001 162.507 379.17 167.268C379.351 172.03 379.401 176.791 379.42 181.553C379.397 186.314 379.349 191.075 379.165 195.837C378.997 200.598 378.75 205.359 378.275 210.121Z" fill="#DADADA"/>
<path d="M386.109 205.535C385.634 200.773 385.386 196.012 385.218 191.251C385.035 186.489 384.986 181.728 384.963 176.967C384.983 172.205 385.032 167.444 385.213 162.683C385.382 157.921 385.63 153.16 386.109 148.398C386.586 153.16 386.835 157.921 387.004 162.683C387.187 167.444 387.235 172.205 387.254 176.967C387.231 181.728 387.183 186.489 386.999 191.251C386.831 196.012 386.582 200.773 386.109 205.535Z" fill="#DADADA"/>
<path d="M393.56 201.261C393.085 196.5 392.838 191.739 392.669 186.977C392.486 182.216 392.437 177.455 392.414 172.693C392.434 167.932 392.483 163.17 392.665 158.409C392.833 153.648 393.082 148.886 393.56 144.125C394.037 148.886 394.286 153.648 394.455 158.409C394.638 163.17 394.686 167.932 394.706 172.693C394.683 177.455 394.634 182.216 394.451 186.977C394.282 191.739 394.034 196.5 393.56 201.261Z" fill="#DADADA"/>
<path d="M401.394 196.675C400.919 191.914 400.672 187.153 400.503 182.391C400.32 177.63 400.271 172.869 400.248 168.107C400.268 163.346 400.317 158.585 400.5 153.823C400.668 149.062 400.917 144.3 401.395 139.539C401.872 144.3 402.122 149.062 402.289 153.823C402.472 158.585 402.52 163.346 402.54 168.107C402.517 172.869 402.468 177.63 402.285 182.391C402.116 187.153 401.869 191.914 401.394 196.675Z" fill="#DADADA"/>
<path d="M408.845 192.472C408.371 187.711 408.123 182.95 407.954 178.188C407.771 173.427 407.722 168.665 407.699 163.904C407.719 159.143 407.768 154.381 407.951 149.62C408.118 144.859 408.368 140.097 408.845 135.336C409.322 140.097 409.572 144.859 409.74 149.62C409.923 154.381 409.971 159.143 409.991 163.904C409.968 168.665 409.92 173.427 409.736 178.188C409.568 182.95 409.32 187.711 408.845 192.472Z" fill="#DADADA"/>
<path d="M416.679 187.886C416.205 183.125 415.957 178.364 415.788 173.602C415.605 168.841 415.556 164.08 415.533 159.318C415.553 154.557 415.602 149.795 415.784 145.034C415.951 140.273 416.201 135.511 416.678 130.75C417.155 135.511 417.404 140.273 417.572 145.034C417.755 149.795 417.803 154.557 417.824 159.318C417.801 164.08 417.751 168.841 417.569 173.602C417.401 178.365 417.153 183.126 416.679 187.886Z" fill="#DADADA"/>
<path d="M189.512 289.668V293.907L197.168 298.619L197.154 294.08L189.512 289.668Z" fill="#F6A032"/>
<path d="M197.168 298.617L198.186 298.044V293.458L190.583 289.047L189.512 289.665L197.154 294.077L197.168 298.617Z" fill="#C67318"/>
<path d="M214.523 304.145V308.384L222.178 313.097L222.165 308.557L214.523 304.145Z" fill="#F6A032"/>
<path d="M222.178 313.098L223.198 312.525V307.939L215.594 303.527L214.523 304.146L222.165 308.558L222.178 313.098Z" fill="#C67318"/>
<path d="M188.337 281.57L205.506 291.439L222.637 301.373L222.599 301.44L218.154 299.238L213.776 296.92C210.864 295.363 208.011 293.704 205.125 292.101C202.292 290.407 199.431 288.761 196.624 287.021L192.428 284.388L188.299 281.637L188.337 281.57Z" fill="#9D9D9C"/>
<path d="M206.196 289.295C206.025 289.659 204.586 289.341 202.984 288.586C201.381 287.831 200.221 286.925 200.392 286.561C200.563 286.197 202.001 286.515 203.603 287.27C205.207 288.025 206.367 288.932 206.196 289.295Z" fill="#9D9D9C"/>
</svg>
