<svg width="470" height="365" viewBox="0 0 470 365" fill="none" xmlns="http://www.w3.org/2000/svg">
<path d="M70.1912 184.804C59.9883 184.918 51.8116 193.28 51.926 203.484C51.9611 206.702 52.8488 212.182 54.3656 218.163C55.8512 224.021 52.6577 228.552 46.6191 228.298C30.9806 227.639 15.4006 226.164 0 223.868L1.57398 365.004L142.775 363.43C140.137 348.086 138.313 332.542 137.306 316.921C136.916 310.889 141.377 307.594 147.267 308.95C153.281 310.334 158.778 311.1 161.996 311.063C172.201 310.949 180.378 302.584 180.265 292.385C180.149 282.181 171.789 274.005 161.585 274.118C158.366 274.155 152.887 275.04 146.906 276.558C141.047 278.043 136.514 274.85 136.769 268.811C137.429 253.173 141.239 222.292 141.239 222.292C125.894 224.932 110.349 226.756 94.729 227.763C88.6969 228.153 85.4034 223.691 86.7577 217.8C88.1419 211.788 88.9075 206.29 88.8711 203.073C88.758 192.938 80.506 184.804 70.4018 184.803C70.3316 184.803 70.2627 184.804 70.1912 184.804Z" fill="url(#paint0_linear_1348_507)"/>
<path d="M70.1912 184.804C59.9883 184.918 51.8116 193.28 51.926 203.484C51.9611 206.702 52.8488 212.182 54.3656 218.163C55.8512 224.021 52.6577 228.552 46.6191 228.298C30.9806 227.639 15.4006 226.164 0 223.868L1.57398 365.004L142.775 363.43C140.137 348.086 138.313 332.542 137.306 316.921C136.916 310.889 141.377 307.594 147.267 308.95C153.281 310.334 158.778 311.1 161.996 311.063C172.201 310.949 180.378 302.584 180.265 292.385C180.149 282.181 171.789 274.005 161.585 274.118C158.366 274.155 152.887 275.04 146.906 276.558C141.047 278.043 136.514 274.85 136.769 268.811C137.429 253.173 141.239 222.292 141.239 222.292C125.894 224.932 110.349 226.756 94.729 227.763C88.6969 228.153 85.4034 223.691 86.7577 217.8C88.1419 211.788 88.9075 206.29 88.8711 203.073C88.758 192.938 80.506 184.804 70.4018 184.803C70.3316 184.803 70.2627 184.804 70.1912 184.804Z" fill="url(#paint1_linear_1348_507)"/>
<path d="M163.205 113.937C165.673 129.309 167.282 144.878 168.114 160.508C168.438 166.544 163.942 169.789 158.066 168.369C152.068 166.917 146.58 166.093 143.361 166.093C133.158 166.093 124.885 174.36 124.885 184.566C124.885 194.766 133.158 203.039 143.361 203.039C146.58 203.039 152.068 202.214 158.066 200.763C163.942 199.341 168.438 202.586 168.114 208.623C167.282 224.252 165.65 239.796 163.182 255.169C178.554 252.701 194.136 251.032 209.766 250.199C215.802 249.877 219.045 254.374 217.627 260.249C216.175 266.247 215.348 271.733 215.348 274.953C215.348 285.157 223.618 293.43 233.824 293.43C244.022 293.43 252.296 285.157 252.296 274.953C252.296 271.733 251.47 266.247 250.02 260.249C248.597 254.374 251.842 249.877 257.878 250.199C273.509 251.032 289.095 252.675 304.467 255.145C302 239.771 300.373 224.2 299.54 208.572C299.218 202.536 303.714 199.293 309.59 200.711C315.587 202.163 321.074 202.989 324.295 202.989C334.501 202.989 342.771 194.721 342.771 184.514C342.771 174.316 334.501 166.041 324.295 166.041C321.074 166.041 315.587 166.869 309.59 168.318C303.714 169.74 299.218 166.496 299.54 160.46C300.373 144.83 302.024 129.284 304.491 113.912C289.117 116.379 178.577 116.405 163.205 113.937Z" fill="url(#paint2_linear_1348_507)"/>
<path d="M163.203 113.933C165.671 129.305 167.28 144.874 168.112 160.504C168.436 166.54 163.94 169.785 158.064 168.365C152.066 166.913 146.578 166.089 143.359 166.089C133.156 166.089 124.883 174.357 124.883 184.562C124.883 194.762 133.156 203.035 143.359 203.035C146.578 203.035 152.066 202.21 158.064 200.759C163.94 199.338 168.436 202.582 168.112 208.619C167.28 224.248 165.648 239.792 163.18 255.165C178.552 252.697 194.134 251.028 209.764 250.195C215.8 249.873 219.043 254.37 217.625 260.245C216.173 266.243 215.346 271.729 215.346 274.949C215.346 285.153 223.616 293.426 233.822 293.426C244.02 293.426 252.294 285.153 252.294 274.949C252.294 271.729 251.469 266.243 250.018 260.245C248.595 254.37 251.84 249.873 257.876 250.195C273.507 251.028 289.093 252.671 304.465 255.141C301.999 239.767 300.371 224.196 299.538 208.568C299.216 202.532 303.712 199.289 309.588 200.707C315.585 202.159 321.072 202.985 324.293 202.985C334.499 202.985 342.769 194.717 342.769 184.51C342.769 174.312 334.499 166.037 324.293 166.037C321.072 166.037 315.585 166.865 309.588 168.314C303.712 169.736 299.216 166.492 299.538 160.456C300.371 144.826 302.022 129.28 304.489 113.908C289.116 116.375 178.575 116.401 163.203 113.933Z" fill="url(#paint3_linear_1348_507)"/>
<path d="M304.566 255.493C302.098 240.121 300.489 224.551 299.657 208.922C299.334 202.886 303.829 199.64 309.706 201.061C315.704 202.513 321.191 203.337 324.411 203.337C334.614 203.337 342.887 195.069 342.887 184.864C342.887 174.663 334.614 166.39 324.411 166.39C321.191 166.39 315.704 167.216 309.706 168.666C303.829 170.088 299.334 166.844 299.657 160.807C300.489 145.177 302.122 129.634 304.59 114.26C289.218 116.729 273.635 118.398 258.006 119.231C251.97 119.553 248.727 115.056 250.145 109.181C251.597 103.183 252.423 97.6966 252.423 94.4771C252.423 84.2728 244.153 76 233.948 76C223.75 76 215.476 84.2728 215.476 94.4771C215.476 97.6966 216.301 103.183 217.752 109.181C219.175 115.056 215.929 119.553 209.893 119.231C194.263 118.398 178.676 116.755 163.304 114.285C165.771 129.658 167.398 145.229 168.231 160.857C168.554 166.893 164.058 170.136 158.182 168.718C152.185 167.266 146.697 166.441 143.477 166.441C133.271 166.441 125.001 174.709 125.001 184.916C125.001 195.113 133.271 203.389 143.477 203.389C146.697 203.389 152.185 202.561 158.182 201.112C164.058 199.69 168.554 202.934 168.231 208.97C167.398 224.599 165.748 240.146 163.281 255.518C178.654 253.051 289.194 253.025 304.566 255.493Z" fill="url(#paint4_linear_1348_507)"/>
<path d="M0.0324955 1.85661L0 143.084C15.3733 145.551 30.9364 147.203 46.5658 148.035C52.6031 148.356 55.8473 143.86 54.4254 137.985C52.9748 131.987 52.1495 126.499 52.1495 123.278C52.1495 113.074 60.4237 104.805 70.624 104.805C80.8283 104.805 89.0959 113.074 89.0959 123.278C89.0959 126.499 88.2706 131.987 86.8201 137.985C85.3995 143.86 88.6436 148.356 94.6783 148.035C110.309 147.203 125.872 145.551 141.245 143.084C143.715 127.711 145.363 112.147 146.196 96.518C146.52 90.482 142.024 87.2366 136.147 88.6585C130.15 90.109 124.663 90.9318 121.443 90.9318C111.238 90.9318 102.968 82.6602 102.968 72.4638C102.968 62.2556 111.238 53.9879 121.443 53.9879C124.663 53.9879 130.15 54.8146 136.147 56.2651C142.024 57.6844 146.52 54.4415 146.196 48.4055C145.363 32.7762 143.729 17.2209 141.262 1.84622C133.591 0.615372 102.24 0.000579834 70.8372 0.000579834C39.312 0.000579834 7.73476 0.62056 0.0324955 1.85661Z" fill="url(#paint5_linear_1348_507)"/>
<path d="M0.0324955 1.85661L0 143.084C15.3733 145.551 30.9364 147.203 46.5658 148.035C52.6031 148.356 55.8473 143.86 54.4254 137.985C52.9748 131.987 52.1495 126.499 52.1495 123.278C52.1495 113.074 60.4237 104.805 70.624 104.805C80.8283 104.805 89.0959 113.074 89.0959 123.278C89.0959 126.499 88.2706 131.987 86.8201 137.985C85.3995 143.86 88.6436 148.356 94.6783 148.035C110.309 147.203 125.872 145.551 141.245 143.084C143.715 127.711 145.363 112.147 146.196 96.518C146.52 90.482 142.024 87.2366 136.147 88.6585C130.15 90.109 124.663 90.9318 121.443 90.9318C111.238 90.9318 102.968 82.6602 102.968 72.4638C102.968 62.2556 111.238 53.9879 121.443 53.9879C124.663 53.9879 130.15 54.8146 136.147 56.2651C142.024 57.6844 146.52 54.4415 146.196 48.4055C145.363 32.7762 143.729 17.2209 141.262 1.84622C133.591 0.615372 102.24 0.000579834 70.8372 0.000579834C39.312 0.000579834 7.73476 0.62056 0.0324955 1.85661Z" fill="url(#paint6_linear_1348_507)"/>
<path d="M380.903 203.073C380.865 206.29 381.629 211.788 383.014 217.8C384.369 223.691 381.074 228.153 375.044 227.763C359.423 226.756 343.878 224.932 328.534 222.292C328.534 222.292 332.345 253.173 333.004 268.811C333.258 274.85 328.726 278.043 322.867 276.558C316.884 275.04 311.408 274.155 308.188 274.118C297.983 274.005 289.623 282.181 289.509 292.385C289.395 302.584 297.571 310.949 307.777 311.063C310.995 311.1 316.492 310.334 322.506 308.95C328.396 307.594 332.857 310.889 332.465 316.921C331.459 332.542 329.636 348.086 326.997 363.43L468.199 365.004L469.771 223.868C454.372 226.164 438.792 227.639 423.154 228.298C417.115 228.552 413.922 224.021 415.406 218.163C416.924 212.182 417.812 206.702 417.847 203.484C417.961 193.28 409.784 184.918 399.581 184.804C399.511 184.804 399.442 184.803 399.372 184.803C389.267 184.804 381.013 192.938 380.903 203.073Z" fill="url(#paint7_linear_1348_507)"/>
<path d="M380.903 203.073C380.865 206.29 381.629 211.788 383.014 217.8C384.369 223.691 381.074 228.153 375.044 227.763C359.423 226.756 343.878 224.932 328.534 222.292C328.534 222.292 332.345 253.173 333.004 268.811C333.258 274.85 328.726 278.043 322.867 276.558C316.884 275.04 311.408 274.155 308.188 274.118C297.983 274.005 289.623 282.181 289.509 292.385C289.395 302.584 297.571 310.949 307.777 311.063C310.995 311.1 316.492 310.334 322.506 308.95C328.396 307.594 332.857 310.889 332.465 316.921C331.459 332.542 329.636 348.086 326.997 363.43L468.199 365.004L469.771 223.868C454.372 226.164 438.792 227.639 423.154 228.298C417.115 228.552 413.922 224.021 415.406 218.163C416.924 212.182 417.812 206.702 417.847 203.484C417.961 193.28 409.784 184.918 399.581 184.804C399.511 184.804 399.442 184.803 399.372 184.803C389.267 184.804 381.013 192.938 380.903 203.073Z" fill="url(#paint8_linear_1348_507)"/>
<path d="M328.511 1.84622C326.043 17.2209 324.409 32.7762 323.577 48.4055C323.253 54.4415 327.75 57.6844 333.625 56.2651C339.624 54.8146 345.111 53.9879 348.331 53.9879C358.534 53.9879 366.806 62.2556 366.806 72.4638C366.806 82.6602 358.534 90.9318 348.331 90.9318C345.111 90.9318 339.624 90.109 333.625 88.6585C327.75 87.2366 323.253 90.482 323.577 96.518C324.409 112.147 326.058 127.711 328.526 143.084C343.901 145.551 359.464 147.203 375.093 148.035C381.129 148.356 384.374 143.86 382.952 137.985C381.503 131.987 380.677 126.499 380.677 123.278C380.677 113.074 388.945 104.805 399.15 104.805C409.349 104.805 417.624 113.074 417.624 123.278C417.624 126.499 416.797 131.987 415.346 137.985C413.926 143.86 417.169 148.356 423.206 148.035C438.835 147.203 454.401 145.551 469.772 143.084L469.741 1.85661C462.038 0.62056 430.461 0.000579834 398.936 0.000579834C367.533 0.000579834 336.183 0.615372 328.511 1.84622Z" fill="url(#paint9_linear_1348_507)"/>
<path d="M328.511 1.84622C326.043 17.2209 324.409 32.7762 323.577 48.4055C323.253 54.4415 327.75 57.6844 333.625 56.2651C339.624 54.8146 345.111 53.9879 348.331 53.9879C358.534 53.9879 366.806 62.2556 366.806 72.4638C366.806 82.6602 358.534 90.9318 348.331 90.9318C345.111 90.9318 339.624 90.109 333.625 88.6585C327.75 87.2366 323.253 90.482 323.577 96.518C324.409 112.147 326.058 127.711 328.526 143.084C343.901 145.551 359.464 147.203 375.093 148.035C381.129 148.356 384.374 143.86 382.952 137.985C381.503 131.987 380.677 126.499 380.677 123.278C380.677 113.074 388.945 104.805 399.15 104.805C409.349 104.805 417.624 113.074 417.624 123.278C417.624 126.499 416.797 131.987 415.346 137.985C413.926 143.86 417.169 148.356 423.206 148.035C438.835 147.203 454.401 145.551 469.772 143.084L469.741 1.85661C462.038 0.62056 430.461 0.000579834 398.936 0.000579834C367.533 0.000579834 336.183 0.615372 328.511 1.84622Z" fill="url(#paint10_linear_1348_507)"/>
<path d="M233.717 167.434L284.698 196.459H182.736L233.717 167.434Z" stroke="white" stroke-width="2.23274" stroke-linejoin="round"/>
<path d="M234.088 186.785H235.949C238.209 186.785 240.042 188.618 240.042 190.879V192.739H234.088V186.785Z" fill="white"/>
<path d="M234.088 202.414H240.042V194.227H234.088V202.414Z" fill="white"/>
<path d="M232.971 186.785H231.11C228.849 186.785 227.017 188.618 227.017 190.879V192.739H232.971V186.785Z" fill="white"/>
<path d="M232.971 200.184H231.11C228.849 200.184 227.017 198.351 227.017 196.09V194.23H232.971V200.184Z" fill="white"/>
<path d="M205.437 172.641H210.274V181.199L205.387 182.874L205.437 172.641Z" fill="white"/>
<rect x="204.689" y="170.41" width="6.32609" height="2.23274" fill="white"/>
<rect x="234.088" y="187.152" width="12.28" height="1.11637" transform="rotate(90 234.088 187.152)" fill="#E40000"/>
<rect x="227.02" y="187.527" width="12.28" height="1.11637" transform="rotate(90 227.02 187.527)" fill="#E40000"/>
<rect x="241.158" y="187.898" width="12.28" height="1.11637" transform="rotate(90 241.158 187.898)" fill="#E40000"/>
<path d="M264.416 193.479L275.083 199.554L274.531 200.524L263.858 194.449L264.416 193.479Z" fill="#E40000"/>
<path d="M274.741 192.905L285.407 198.979L284.951 199.781L274.279 193.706L274.741 192.905Z" fill="#E40000"/>
<path d="M284.698 202.412L233.717 173.387L182.736 202.412L237.624 202.412" stroke="white" stroke-width="4.83759" stroke-linecap="round" stroke-linejoin="round"/>
<rect x="189.436" y="194.227" width="14.5128" height="1.11637" fill="#E40000"/>
<rect x="184.225" y="197.574" width="12.28" height="1.11637" fill="#E40000"/>
<path d="M204.343 220.483H207.534C208.599 220.483 209.544 220.705 210.369 221.149C211.193 221.589 211.84 222.213 212.31 223.02C212.779 223.824 213.014 224.775 213.014 225.875C213.014 226.923 212.779 227.835 212.31 228.609C211.84 229.382 211.193 229.983 210.369 230.41C209.544 230.833 208.599 231.044 207.534 231.044H204.343C203.269 231.044 202.317 230.835 201.489 230.416C200.664 229.993 200.017 229.393 199.548 228.615C199.078 227.837 198.844 226.917 198.844 225.856C198.844 224.76 199.08 223.811 199.554 223.008C200.032 222.204 200.685 221.583 201.514 221.143C202.343 220.703 203.286 220.483 204.343 220.483ZM204.343 223.077C203.844 223.077 203.396 223.175 202.998 223.369C202.601 223.56 202.288 223.86 202.06 224.27C201.831 224.68 201.717 225.209 201.717 225.856C201.717 226.46 201.833 226.955 202.066 227.34C202.303 227.721 202.62 228.002 203.017 228.184C203.415 228.361 203.857 228.45 204.343 228.45H207.553C208.047 228.45 208.487 228.357 208.872 228.171C209.261 227.985 209.565 227.701 209.785 227.321C210.009 226.94 210.121 226.458 210.121 225.875C210.121 225.228 210.009 224.699 209.785 224.289C209.565 223.875 209.261 223.57 208.872 223.376C208.487 223.177 208.047 223.077 207.553 223.077H204.343ZM207.407 218.91V232.662H204.457V218.91H207.407ZM216.882 232.129H213.507L217.89 219.138H222.07L226.453 232.129H223.079L220.028 222.411H219.926L216.882 232.129ZM216.431 227.016H223.485V229.401H216.431V227.016ZM239.033 223.845H235.861C235.819 223.519 235.732 223.225 235.601 222.963C235.47 222.701 235.297 222.477 235.081 222.291C234.866 222.105 234.61 221.963 234.314 221.866C234.022 221.764 233.698 221.714 233.343 221.714C232.713 221.714 232.17 221.868 231.713 222.177C231.261 222.485 230.912 222.932 230.666 223.515C230.425 224.099 230.305 224.805 230.305 225.634C230.305 226.496 230.428 227.219 230.673 227.803C230.922 228.382 231.271 228.82 231.719 229.116C232.172 229.408 232.707 229.554 233.324 229.554C233.671 229.554 233.986 229.509 234.269 229.42C234.557 229.332 234.808 229.203 235.024 229.034C235.244 228.86 235.424 228.651 235.563 228.406C235.707 228.156 235.806 227.875 235.861 227.562L239.033 227.581C238.978 228.156 238.811 228.723 238.532 229.281C238.257 229.839 237.878 230.349 237.396 230.81C236.914 231.266 236.327 231.63 235.633 231.901C234.944 232.171 234.153 232.307 233.261 232.307C232.085 232.307 231.032 232.049 230.102 231.533C229.176 231.013 228.444 230.256 227.907 229.262C227.37 228.268 227.102 227.059 227.102 225.634C227.102 224.204 227.374 222.993 227.92 221.999C228.465 221.005 229.203 220.251 230.134 219.735C231.064 219.219 232.106 218.961 233.261 218.961C234.047 218.961 234.775 219.071 235.443 219.291C236.111 219.506 236.699 219.823 237.206 220.242C237.714 220.657 238.126 221.166 238.443 221.771C238.76 222.375 238.957 223.067 239.033 223.845ZM243.308 232.129H239.934L244.317 219.138H248.497L252.88 232.129H249.505L246.454 222.411H246.353L243.308 232.129ZM242.858 227.016H249.911V229.401H242.858V227.016ZM253.714 235.256V229.681H254.608C254.908 229.478 255.183 229.194 255.433 228.831C255.682 228.463 255.896 227.947 256.073 227.283C256.251 226.615 256.378 225.733 256.454 224.638L256.86 219.138H265.746V229.681H267.142V235.25H264.123V232.129H256.733V235.256H253.714ZM258.211 229.681H262.727V221.688H259.676L259.473 224.638C259.418 225.462 259.329 226.19 259.207 226.82C259.084 227.45 258.938 228 258.769 228.469C258.6 228.934 258.414 229.338 258.211 229.681Z" fill="white"/>
<path d="M203.606 150.766L199.521 145.374H198.81V150.766H195.671V137.775H198.81V142.818H199.312L203.333 137.775H207.259L202.255 143.909L207.519 150.766H203.606ZM208.666 150.766V137.775H214.032C215.005 137.775 215.844 137.965 216.55 138.346C217.261 138.722 217.808 139.249 218.193 139.925C218.578 140.598 218.77 141.38 218.77 142.272C218.77 143.169 218.574 143.953 218.18 144.626C217.791 145.294 217.235 145.812 216.512 146.18C215.789 146.548 214.931 146.731 213.937 146.731H210.626V144.258H213.353C213.827 144.258 214.222 144.175 214.54 144.01C214.861 143.845 215.104 143.615 215.269 143.319C215.434 143.019 215.516 142.67 215.516 142.272C215.516 141.871 215.434 141.524 215.269 141.232C215.104 140.936 214.861 140.708 214.54 140.547C214.218 140.386 213.823 140.306 213.353 140.306H211.806V150.766H208.666ZM232.579 144.27C232.579 145.7 232.304 146.911 231.754 147.905C231.205 148.899 230.46 149.653 229.522 150.169C228.587 150.685 227.538 150.943 226.376 150.943C225.208 150.943 224.158 150.683 223.223 150.163C222.289 149.643 221.546 148.888 220.997 147.899C220.451 146.905 220.178 145.695 220.178 144.27C220.178 142.841 220.451 141.63 220.997 140.636C221.546 139.642 222.289 138.887 223.223 138.371C224.158 137.856 225.208 137.598 226.376 137.598C227.538 137.598 228.587 137.856 229.522 138.371C230.46 138.887 231.205 139.642 231.754 140.636C232.304 141.63 232.579 142.841 232.579 144.27ZM229.369 144.27C229.369 143.425 229.249 142.71 229.008 142.126C228.771 141.543 228.429 141.101 227.98 140.801C227.536 140.501 227.001 140.35 226.376 140.35C225.754 140.35 225.219 140.501 224.771 140.801C224.323 141.101 223.978 141.543 223.737 142.126C223.5 142.71 223.382 143.425 223.382 144.27C223.382 145.116 223.5 145.831 223.737 146.414C223.978 146.998 224.323 147.44 224.771 147.74C225.219 148.04 225.754 148.19 226.376 148.19C227.001 148.19 227.536 148.04 227.98 147.74C228.429 147.44 228.771 146.998 229.008 146.414C229.249 145.831 229.369 145.116 229.369 144.27ZM234.412 150.766V137.775H239.829C240.802 137.775 241.616 137.913 242.271 138.187C242.931 138.462 243.426 138.847 243.755 139.342C244.089 139.837 244.256 140.41 244.256 141.061C244.256 141.556 244.153 141.997 243.946 142.387C243.738 142.771 243.453 143.091 243.089 143.344C242.726 143.598 242.305 143.776 241.827 143.877V144.004C242.351 144.029 242.836 144.171 243.28 144.429C243.728 144.687 244.087 145.046 244.358 145.507C244.629 145.964 244.764 146.505 244.764 147.131C244.764 147.829 244.586 148.453 244.231 149.002C243.876 149.548 243.362 149.979 242.69 150.296C242.017 150.609 241.201 150.766 240.241 150.766H234.412ZM237.552 148.235H239.493C240.174 148.235 240.675 148.106 240.996 147.848C241.322 147.59 241.485 147.23 241.485 146.77C241.485 146.435 241.406 146.148 241.25 145.907C241.093 145.662 240.871 145.473 240.584 145.342C240.296 145.207 239.952 145.139 239.55 145.139H237.552V148.235ZM237.552 143.116H239.29C239.632 143.116 239.937 143.059 240.203 142.945C240.47 142.831 240.677 142.666 240.825 142.45C240.977 142.234 241.053 141.974 241.053 141.67C241.053 141.234 240.899 140.892 240.59 140.642C240.282 140.393 239.865 140.268 239.341 140.268H237.552V143.116ZM245.709 150.766V148.305L246.064 148.266C246.521 148.212 246.893 148.028 247.181 147.715C247.468 147.397 247.686 146.894 247.834 146.205C247.986 145.512 248.083 144.575 248.126 143.395L248.335 137.775H257.45V150.766H254.412V140.249H251.234L251.031 144.549C250.959 146.034 250.771 147.233 250.466 148.146C250.162 149.055 249.69 149.719 249.052 150.138C248.417 150.556 247.565 150.766 246.496 150.766H245.709ZM269.76 150.766H266.627V140.306H265.079C264.61 140.306 264.214 140.374 263.893 140.509C263.571 140.64 263.326 140.839 263.157 141.105C262.992 141.367 262.91 141.699 262.91 142.101C262.91 142.503 262.992 142.833 263.157 143.091C263.322 143.344 263.565 143.535 263.886 143.661C264.212 143.784 264.607 143.845 265.073 143.845H267.883V146.319H264.495C263.506 146.319 262.647 146.156 261.92 145.831C261.197 145.501 260.639 145.023 260.246 144.397C259.852 143.767 259.656 143.002 259.656 142.101C259.656 141.213 259.848 140.446 260.233 139.799C260.618 139.147 261.165 138.648 261.876 138.302C262.586 137.951 263.428 137.775 264.4 137.775H269.76V150.766ZM262.447 144.829H265.808L262.643 150.766H259.212L262.447 144.829Z" fill="white"/>
<defs>
<linearGradient id="paint0_linear_1348_507" x1="0.000205359" y1="274.904" x2="180.265" y2="274.904" gradientUnits="userSpaceOnUse">
<stop stop-color="#5648F9"/>
<stop offset="0.704816" stop-color="#201FD2"/>
<stop offset="1" stop-color="#201FD2"/>
</linearGradient>
<linearGradient id="paint1_linear_1348_507" x1="139.165" y1="203.701" x2="-4.11254" y2="393.846" gradientUnits="userSpaceOnUse">
<stop stop-color="#FF7878"/>
<stop offset="0.704816" stop-color="#E40000"/>
<stop offset="1" stop-color="#FF7878"/>
</linearGradient>
<linearGradient id="paint2_linear_1348_507" x1="124.885" y1="203.67" x2="342.77" y2="203.67" gradientUnits="userSpaceOnUse">
<stop stop-color="#5648F9"/>
<stop offset="0.704816" stop-color="#201FD2"/>
<stop offset="1" stop-color="#201FD2"/>
</linearGradient>
<linearGradient id="paint3_linear_1348_507" x1="267.613" y1="127.875" x2="184.592" y2="267.136" gradientUnits="userSpaceOnUse">
<stop stop-color="#E40000"/>
<stop offset="0.704816" stop-color="#E40000"/>
<stop offset="1" stop-color="#E40000"/>
</linearGradient>
<linearGradient id="paint4_linear_1348_507" x1="200.156" y1="241.551" x2="283.177" y2="102.29" gradientUnits="userSpaceOnUse">
<stop stop-color="#E40000"/>
<stop offset="0.704816" stop-color="#E40000"/>
<stop offset="1" stop-color="#E40000"/>
</linearGradient>
<linearGradient id="paint5_linear_1348_507" x1="0.000205359" y1="74.0258" x2="146.213" y2="74.0258" gradientUnits="userSpaceOnUse">
<stop stop-color="#5648F9"/>
<stop offset="0.704816" stop-color="#201FD2"/>
<stop offset="1" stop-color="#201FD2"/>
</linearGradient>
<linearGradient id="paint6_linear_1348_507" x1="132.95" y1="-25.612" x2="-11.667" y2="202.026" gradientUnits="userSpaceOnUse">
<stop stop-color="#FF7878"/>
<stop offset="0.704816" stop-color="#E40000"/>
<stop offset="1" stop-color="#FF7878"/>
</linearGradient>
<linearGradient id="paint7_linear_1348_507" x1="469.772" y1="274.904" x2="289.508" y2="274.904" gradientUnits="userSpaceOnUse">
<stop stop-color="#5648F9"/>
<stop offset="0.704816" stop-color="#201FD2"/>
<stop offset="1" stop-color="#201FD2"/>
</linearGradient>
<linearGradient id="paint8_linear_1348_507" x1="330.607" y1="203.701" x2="473.885" y2="393.846" gradientUnits="userSpaceOnUse">
<stop stop-color="#FF7878"/>
<stop offset="0.704816" stop-color="#E40000"/>
<stop offset="1" stop-color="#FF7878"/>
</linearGradient>
<linearGradient id="paint9_linear_1348_507" x1="469.773" y1="74.0258" x2="323.56" y2="74.0258" gradientUnits="userSpaceOnUse">
<stop stop-color="#5648F9"/>
<stop offset="0.704816" stop-color="#201FD2"/>
<stop offset="1" stop-color="#201FD2"/>
</linearGradient>
<linearGradient id="paint10_linear_1348_507" x1="336.823" y1="-25.612" x2="481.44" y2="202.026" gradientUnits="userSpaceOnUse">
<stop stop-color="#FF7878"/>
<stop offset="0.704816" stop-color="#E40000"/>
<stop offset="1" stop-color="#FF7878"/>
</linearGradient>
</defs>
</svg>
