<svg width="26" height="31" viewBox="0 0 26 31" fill="none" xmlns="http://www.w3.org/2000/svg">
<path d="M15.3813 17.9841H3.60967e-05V14.7304H15.3813C16.8011 14.7304 17.9744 14.4839 18.9012 13.9909C19.828 13.488 20.5182 12.8077 20.9717 11.9499C21.4253 11.0823 21.6521 10.0963 21.6521 8.99199C21.6521 7.8877 21.4253 6.90665 20.9717 6.04885C20.5182 5.18119 19.828 4.50087 18.9012 4.00788C17.9744 3.50503 16.8011 3.25361 15.3813 3.25361H8.45971V30.2891H4.79188V-0.000109101H15.3813C17.6293 -0.000109101 19.4829 0.409071 20.9422 1.22743C22.4014 2.04579 23.486 3.13529 24.1959 4.49594C24.9058 5.85659 25.2607 7.35527 25.2607 8.99199C25.2607 10.6287 24.9058 12.1274 24.1959 13.488C23.486 14.8487 22.4014 15.9382 20.9422 16.7565C19.4829 17.5749 17.6293 17.9841 15.3813 17.9841ZM15.1446 20.8237V24.0774H3.60967e-05V20.8237H15.1446Z" fill="white"/>
</svg>
