<svg width="351" height="347" viewBox="0 0 351 347" fill="none" xmlns="http://www.w3.org/2000/svg">
<path d="M-6.20703 42.6979L39.1033 14.6055L84.4137 42.6979L129.724 14.6055L175.034 42.6979L219.439 14.6055L265.655 42.6979L310.059 14.6055L356.276 42.6979" stroke="white" stroke-opacity="0.2" stroke-width="24.8276"/>
<path d="M-6.20703 100.585L39.1033 72.4922L84.4137 100.585L129.724 72.4922L175.034 100.585L219.439 72.4922L265.655 100.585L310.059 72.4922L356.276 100.585" stroke="white" stroke-opacity="0.2" stroke-width="24.8276"/>
<path d="M-6.20703 158.467L39.1033 130.375L84.4137 158.467L129.724 130.375L175.034 158.467L219.439 130.375L265.655 158.467L310.059 130.375L356.276 158.467" stroke="white" stroke-opacity="0.2" stroke-width="24.8276"/>
<path d="M-6.20703 216.354L39.1033 188.262L84.4137 216.354L129.724 188.262L175.034 216.354L219.439 188.262L265.655 216.354L310.059 188.262L356.276 216.354" stroke="white" stroke-opacity="0.2" stroke-width="24.8276"/>
<path d="M-6.20703 274.241L39.1033 246.148L84.4137 274.241L129.724 246.148L175.034 274.241L219.439 246.148L265.655 274.241L310.059 246.148L356.276 274.241" stroke="white" stroke-opacity="0.2" stroke-width="24.8276"/>
<path d="M-6.20703 332.124L39.1033 304.031L84.4137 332.124L129.724 304.031L175.034 332.124L219.439 304.031L265.655 332.124L310.059 304.031L356.276 332.124" stroke="white" stroke-opacity="0.2" stroke-width="24.8276"/>
</svg>
