<svg width="51" height="51" viewBox="0 0 51 51" fill="none" xmlns="http://www.w3.org/2000/svg">
<circle cx="25.438" cy="25.438" r="25.438" fill="#E40000"/>
<path d="M28.5307 28.695H13.1495V25.4413H28.5307C29.9505 25.4413 31.1238 25.1948 32.0506 24.7018C32.9774 24.199 33.6676 23.5187 34.1212 22.6609C34.5747 21.7932 34.8015 20.8072 34.8015 19.7029C34.8015 18.5986 34.5747 17.6176 34.1212 16.7598C33.6676 15.8921 32.9774 15.2118 32.0506 14.7188C31.1238 14.216 29.9505 13.9645 28.5307 13.9645H21.6091V41H17.9413V10.7108H28.5307C30.7787 10.7108 32.6323 11.12 34.0916 11.9384C35.5508 12.7567 36.6354 13.8462 37.3453 15.2069C38.0552 16.5675 38.4101 18.0662 38.4101 19.7029C38.4101 21.3396 38.0552 22.8383 37.3453 24.199C36.6354 25.5596 35.5508 26.6491 34.0916 27.4675C32.6323 28.2858 30.7787 28.695 28.5307 28.695ZM28.294 31.5346V34.7884H13.1495V31.5346H28.294Z" fill="white"/>
</svg>
